<?xml version="1.0" encoding="utf-8"?>
<!-- Generator: Adobe Illustrator 26.5.0, SVG Export Plug-In . SVG Version: 6.00 Build 0)  -->
<svg version="1.1" id="Camada_1" xmlns="http://www.w3.org/2000/svg" xmlns:xlink="http://www.w3.org/1999/xlink" x="0px" y="0px"
	 viewBox="0 0 1206.3 446" style="enable-background:new 0 0 1206.3 446;" xml:space="preserve">
<style type="text/css">
	.st0{fill:#105BA6;}
	.st1{fill-rule:evenodd;clip-rule:evenodd;fill:#FFFFFF;}
	.st2{fill:#E21A24;}
	.st3{fill:#FFFFFF;}
	.st4{fill-rule:evenodd;clip-rule:evenodd;}
</style>
<g>
	<path class="st3" d="M331,62v216.6c0,43.6-17,84.7-47.8,115.5C252.3,425,211.3,442,167.6,442C124,442,83,425,52.1,394.1
		C21.3,363.3,4.3,322.3,4.3,278.6v-4H4V62H331 M335,58H0v220.6h0.3C0.3,371.1,75.2,446,167.6,446c92.4,0,167.4-74.9,167.4-167.4
		c0,0,0,0,0,0V58L335,58z"/>
</g>
<g>
	<path class="st1" d="M264.8,304.8c0.5-0.5,0.9-0.9,1.2-1.2c1.6-1.6,0.3-3.4-1.2-4.7c0-0.2-0.2-0.2-0.2-0.3
		c-0.8-0.6-1.7-0.6-2.7-0.5c-0.8,0.1-1.6,0.6-2,0.9c-0.9,0.6-2.5,2-3,3.7c-0.6,1.7,1.9,3.4,1.9,3.4v0.8c0,0-0.8,0.9-1.6,1.6
		c-0.5,0.5-0.6,0.6-0.9,0.8c-0.2,0-0.3-0.1-0.6-0.3c-0.6-0.6-0.2-1.1,0.3-1.6c0.5-0.6-0.2-0.9-0.6-1.7c-0.6-0.8-0.8-0.5-1.6,0
		c-0.8,0.6-1.9,2.3-0.2,4.5c0.8,1.1,1.7,1.4,2.7,1.4c0.6,0,1.3-0.2,1.7-0.5c0.5-0.3,2.2-1.9,3.9-3.6
		C262.9,306.7,264,305.6,264.8,304.8z M259.9,303.7c-0.2-0.6,0-0.9,0-0.9c0.6-0.6,1.2-1.6,2-2c0.2,0,0.5-0.2,0.6-0.2
		c0.9-0.2,1.6,0.5,0.9,1.6c-0.5,0.8-1.1,1.2-1.6,1.7c-0.2,0.2-0.5,0.2-0.6,0.3C260.7,304.5,259.9,304.3,259.9,303.7z"/>
	<path class="st1" d="M262,310.3c-0.6,0.6-0.9,1.2-1.3,1.6c-0.9,1.3-0.5,3.4,0.2,4.2c0,0,0.5,0.5,1.1,0.9c0.5,0.2,1.2,0.5,2,0.5
		c0.3,0,0.5,0,0.8-0.2c1.6-0.5,2.8-2,4.5-3.9c1.7-2-1.7-4.2-1.7-4.2s-0.3-0.2,0.9-1.3c1.3-1.2,1.9-1.9,2.7-1.7
		c0.9,0.3,0.6,1.4,0.2,2.2c-0.5,0.6-0.6,0.6-0.3,1.2c0.5,0.8,1.4,1.3,1.4,1.3s0.5-0.3,1.4-1.7c0.9-1.6,0-2.8-1.4-4.4
		c-1.2-1.6-3.3-1.1-4.8,0.2c-0.5,0.6-1.7,1.6-2.8,2.7C263.8,308.5,262.7,309.5,262,310.3z M265.9,311c0.8,0,1.1,0.8,0.5,1.7
		c-0.5,0.6-1.1,1.2-1.6,1.7c-0.2,0.2-0.3,0.3-0.5,0.3c-0.8,0.5-2.3-0.2-0.9-1.7c0.6-0.8,1.1-1.3,1.4-1.6
		C265.2,311,265.6,310.9,265.9,311z"/>
	<g>
		<path class="st1" d="M192.7,318.5c0-0.4-0.3-0.6-0.7-0.6c-0.4,0-0.7,0.3-0.7,0.6v0.2c-0.1,0.5-0.6,1-1.3,1.4l0.8-0.3l1.5-0.7
			l0.5-0.2c0-0.1-0.1-0.2-0.1-0.3C192.7,318.6,192.7,318.6,192.7,318.5z"/>
		<path class="st1" d="M202.2,312.3c0-0.1,0-0.1,0-0.2c0-0.4-0.3-0.6-0.7-0.6c-0.4,0-0.7,0.3-0.7,0.6v0.2c-0.2,1-1.8,2-4.1,2
			c-2.3,0-3.9-1-4.1-2c0-0.1,0-0.1,0-0.2c0-0.4-0.3-0.6-0.7-0.6c-0.4,0-0.7,0.3-0.7,0.6v0.2c-0.2,1-1.8,2-4.1,2c-2.3,0-3.9-1-4.1-2
			c0-0.1,0-0.1,0-0.2c0-0.4-0.3-0.6-0.7-0.6c-0.4,0-0.7,0.3-0.7,0.6c0,0.1,0,0.1,0,0.2c-0.2,1-1.8,2-4.1,2c-2.3,0-3.9-1-4.1-2
			c0-0.1,0-0.1,0-0.2c0-0.4-0.3-0.6-0.7-0.6c-0.4,0-0.7,0.3-0.7,0.6c0,0.1,0,0.1,0,0.2c-0.2,1-1.8,2-4.1,2c-2.3,0-3.9-1-4.1-2
			c0-0.1,0-0.1,0-0.2c0-0.4-0.3-0.6-0.7-0.6c-0.4,0-0.7,0.3-0.7,0.6c0,0.1,0,0.1,0,0.2c-0.2,1-1.8,2-4.1,2c-2.3,0-3.9-1-4.1-2
			c0-0.1,0-0.1,0-0.2c0-0.4-0.3-0.6-0.7-0.6c-0.4,0-0.7,0.3-0.7,0.6c0,0.1,0,0.1,0,0.2c-0.2,1-1.8,2-4.1,2c-2.3,0-3.9-1-4.1-2v-0.2
			c0-0.4-0.3-0.6-0.7-0.6c-0.4,0-0.7,0.3-0.7,0.6c0,0.1,0,0.1,0,0.2c-0.2,1-1.8,2-4.1,2c-2.3,0-3.9-1-4.1-2c0-0.1,0-0.1,0-0.2
			c0-0.4-0.3-0.6-0.7-0.6c-0.4,0-0.7,0.3-0.7,0.6c0,0.1,0,0.1,0,0.2c-0.2,0.8-1.1,1.5-2.5,1.8l0.1,0.1l1.4,0.8
			c0.7-0.3,1.3-0.7,1.7-1.2c0.9,1.1,2.7,1.8,4.7,1.8c2.1,0,3.8-0.7,4.7-1.8c0.9,1.1,2.7,1.8,4.7,1.8c2.1,0,3.8-0.7,4.7-1.8
			c0.9,1.1,2.7,1.8,4.7,1.8c2.1,0,3.8-0.7,4.7-1.8c0.9,1.1,2.7,1.8,4.7,1.8c2.1,0,3.8-0.7,4.7-1.8c0.9,1.1,2.7,1.8,4.7,1.8
			c2.1,0,3.8-0.7,4.7-1.8c0.9,1.1,2.7,1.8,4.7,1.8c2.1,0,3.8-0.7,4.7-1.8c0.9,1.1,2.7,1.8,4.7,1.8c2.1,0,3.8-0.7,4.7-1.8
			c0.2,0.2,0.4,0.3,0.6,0.5l1.2-0.8C202.7,313.2,202.3,312.7,202.2,312.3z"/>
		<path class="st1" d="M211.6,305.7c0-0.4-0.3-0.7-0.7-0.7c-0.4,0-0.6,0.3-0.6,0.7c0,0.1,0,0.1,0,0.2c-0.2,1-1.8,2-4.1,2
			c-2.3,0-3.9-1-4.1-2c0-0.1,0-0.1,0-0.2c0-0.4-0.3-0.7-0.7-0.7c-0.4,0-0.7,0.3-0.7,0.7v0.2c-0.2,1-1.8,2-4.1,2c-2.3,0-3.9-1-4.1-2
			c0-0.1,0-0.1,0-0.2c0-0.4-0.3-0.7-0.7-0.7c-0.4,0-0.7,0.3-0.7,0.7v0.2c-0.2,1-1.8,2-4.1,2c-2.3,0-3.9-1-4.1-2c0-0.1,0-0.1,0-0.2
			c0-0.4-0.3-0.7-0.7-0.7c-0.4,0-0.7,0.3-0.7,0.7c0,0.1,0,0.1,0,0.2c-0.2,1-1.8,2-4.1,2c-2.3,0-3.9-1-4.1-2c0-0.1,0-0.1,0-0.2
			c0-0.4-0.3-0.7-0.7-0.7c-0.4,0-0.7,0.3-0.7,0.7c0,0.1,0,0.1,0,0.2c-0.2,1-1.8,2-4.1,2c-2.3,0-3.9-1-4.1-2c0-0.1,0-0.1,0-0.2
			c0-0.4-0.3-0.7-0.7-0.7c-0.4,0-0.7,0.3-0.7,0.7c0,0.1,0,0.1,0,0.2c-0.2,1-1.8,2-4.1,2c-2.3,0-3.9-1-4.1-2c0-0.1,0-0.1,0-0.2
			c0-0.4-0.3-0.7-0.7-0.7c-0.4,0-0.7,0.3-0.7,0.7c0,0.1,0,0.1,0,0.2c-0.2,1-1.8,2-4.1,2c-2.3,0-3.9-1-4.1-2v-0.2
			c0-0.4-0.3-0.7-0.7-0.7c-0.4,0-0.7,0.3-0.7,0.7c0,0.1,0,0.1,0,0.2c-0.2,1-1.8,2-4.1,2c-2.3,0-3.9-1-4.1-2c0-0.1,0-0.1,0-0.2
			c0-0.4-0.3-0.7-0.7-0.7c-0.4,0-0.7,0.3-0.7,0.7c0,0.1,0,0.1,0,0.2c-0.2,1-1.8,2-4.1,2c-2.3,0-3.9-1-4.1-2c0-0.1,0-0.1,0-0.2
			c0-0.4-0.3-0.7-0.7-0.7c-0.4,0-0.7,0.3-0.7,0.7c0,0.1,0,0.1,0,0.2c-0.1,0.7-1,1.4-2.2,1.7l0.6,0.5l0.6,0.5
			c0.7-0.3,1.3-0.7,1.7-1.2c0.9,1.1,2.7,1.8,4.7,1.8c2.1,0,3.8-0.7,4.7-1.8c0.9,1.1,2.7,1.8,4.7,1.8c2.1,0,3.8-0.7,4.7-1.8
			c0.9,1.1,2.7,1.8,4.7,1.8c2.1,0,3.8-0.7,4.7-1.8c0.9,1.1,2.7,1.8,4.7,1.8c2.1,0,3.8-0.7,4.7-1.8c0.9,1.1,2.7,1.8,4.7,1.8
			c2.1,0,3.8-0.7,4.7-1.8c0.9,1.1,2.7,1.8,4.7,1.8c2.1,0,3.8-0.7,4.7-1.8c0.9,1.1,2.7,1.8,4.7,1.8c2.1,0,3.8-0.7,4.7-1.8
			c0.9,1.1,2.7,1.8,4.7,1.8c2.1,0,3.8-0.7,4.7-1.8c0.9,1.1,2.7,1.8,4.7,1.8c2.1,0,3.8-0.7,4.7-1.8c0.1,0.1,0.2,0.2,0.3,0.2l1-0.9
			c-0.3-0.3-0.5-0.6-0.6-0.9C211.6,305.8,211.6,305.7,211.6,305.7z"/>
		<path class="st1" d="M211.6,299.4c0-0.1,0-0.1,0-0.2c0-0.4-0.3-0.7-0.7-0.7c-0.4,0-0.6,0.3-0.6,0.7c0,0.1,0,0.1,0,0.2
			c-0.2,1-1.8,2-4.1,2c-2.3,0-3.9-1-4.1-2c0-0.1,0-0.1,0-0.2c0-0.4-0.3-0.7-0.7-0.7c-0.4,0-0.7,0.3-0.7,0.7v0.2c-0.2,1-1.8,2-4.1,2
			c-2.3,0-3.9-1-4.1-2c0-0.1,0-0.1,0-0.2c0-0.4-0.3-0.7-0.7-0.7c-0.4,0-0.7,0.3-0.7,0.7v0.2c-0.2,1-1.8,2-4.1,2c-2.3,0-3.9-1-4.1-2
			c0-0.1,0-0.1,0-0.2c0-0.4-0.3-0.7-0.7-0.7c-0.4,0-0.7,0.3-0.7,0.7c0,0.1,0,0.1,0,0.2c-0.2,1-1.8,2-4.1,2c-2.3,0-3.9-1-4.1-2
			c0-0.1,0-0.1,0-0.2c0-0.4-0.3-0.7-0.7-0.7c-0.4,0-0.7,0.3-0.7,0.7c0,0.1,0,0.1,0,0.2c-0.2,1-1.8,2-4.1,2c-2.3,0-3.9-1-4.1-2
			c0-0.1,0-0.1,0-0.2c0-0.4-0.3-0.7-0.7-0.7c-0.4,0-0.7,0.3-0.7,0.7c0,0.1,0,0.1,0,0.2c-0.2,1-1.8,2-4.1,2c-2.3,0-3.9-1-4.1-2
			c0-0.1,0-0.1,0-0.2c0-0.4-0.3-0.7-0.7-0.7c-0.4,0-0.7,0.3-0.7,0.7c0,0.1,0,0.1,0,0.2c-0.2,1-1.8,2-4.1,2c-2.3,0-3.9-1-4.1-2v-0.2
			c0-0.4-0.3-0.7-0.7-0.7c-0.4,0-0.7,0.3-0.7,0.7c0,0.1,0,0.1,0,0.2c-0.2,1-1.8,2-4.1,2c-2.3,0-3.9-1-4.1-2c0-0.1,0-0.1,0-0.2
			c0-0.4-0.3-0.7-0.7-0.7c-0.4,0-0.7,0.3-0.7,0.7c0,0.1,0,0.1,0,0.2c-0.2,1-1.8,2-4.1,2c-2.3,0-3.9-1-4.1-2c0-0.1,0-0.1,0-0.2
			c0-0.4-0.3-0.7-0.7-0.7c-0.4,0-0.7,0.3-0.7,0.7c0,0.1,0,0.1,0,0.2c-0.2,1-1.8,2-4.1,2c-2.3,0-3.9-1-4.1-2c0-0.1,0-0.1,0-0.2
			c0-0.4-0.3-0.7-0.7-0.7c-0.4,0-0.7,0.3-0.7,0.7c0,0.1,0,0.1,0,0.2c0,0.2-0.1,0.4-0.3,0.6l0.8,1l0,0c0,0,0.1-0.1,0.1-0.1
			c0.9,1.1,2.7,1.8,4.7,1.8c2.1,0,3.8-0.7,4.7-1.8c0.9,1.1,2.7,1.8,4.7,1.8c2.1,0,3.8-0.7,4.7-1.8c0.9,1.1,2.7,1.8,4.7,1.8
			c2.1,0,3.8-0.7,4.7-1.8c0.9,1.1,2.7,1.8,4.7,1.8c2.1,0,3.8-0.7,4.7-1.8c0.9,1.1,2.7,1.8,4.7,1.8c2.1,0,3.8-0.7,4.7-1.8
			c0.9,1.1,2.7,1.8,4.7,1.8c2.1,0,3.8-0.7,4.7-1.8c0.9,1.1,2.7,1.8,4.7,1.8c2.1,0,3.8-0.7,4.7-1.8c0.9,1.1,2.7,1.8,4.7,1.8
			c2.1,0,3.8-0.7,4.7-1.8c0.9,1.1,2.7,1.8,4.7,1.8c2.1,0,3.8-0.7,4.7-1.8c0.9,1.1,2.7,1.8,4.7,1.8c2.1,0,3.8-0.7,4.7-1.8
			c0.9,1.1,2.7,1.8,4.7,1.8c0.3,0,0.6,0,0.8-0.1l0.7-0.6l0.2-0.2l0.8-0.9c-0.7,0.3-1.5,0.5-2.5,0.5
			C213.4,301.4,211.8,300.4,211.6,299.4z"/>
		<path class="st1" d="M221.1,293c0-0.1,0-0.1,0-0.2c0-0.4-0.3-0.7-0.7-0.7c-0.4,0-0.6,0.3-0.6,0.7c0,0.1,0,0.1,0,0.2
			c-0.1,0.5-0.6,1-1.3,1.4c-0.7,0.4-1.6,0.6-2.7,0.6c-1.1,0-2-0.2-2.7-0.6c-0.7-0.4-1.2-0.9-1.3-1.4c0-0.1,0-0.1,0-0.2
			c0-0.4-0.3-0.7-0.7-0.7c-0.4,0-0.6,0.3-0.6,0.7c0,0.1,0,0.1,0,0.2c-0.1,0.5-0.6,1-1.3,1.4c-0.7,0.4-1.6,0.6-2.7,0.6
			c-1.1,0-2-0.2-2.7-0.6c-0.8-0.4-1.2-0.9-1.3-1.4c0-0.1,0-0.1,0-0.2c0-0.4-0.3-0.7-0.7-0.7c-0.4,0-0.7,0.3-0.7,0.7v0.2
			c-0.1,0.5-0.6,1-1.3,1.4c-0.7,0.4-1.6,0.6-2.7,0.6c-1.1,0-2-0.2-2.7-0.6c-0.8-0.4-1.2-0.9-1.3-1.4c0-0.1,0-0.1,0-0.2
			c0-0.4-0.3-0.7-0.7-0.7c-0.4,0-0.7,0.3-0.7,0.7v0.2c-0.1,0.5-0.6,1-1.3,1.4c-0.7,0.4-1.6,0.6-2.7,0.6c-1.1,0-2-0.2-2.7-0.6
			c-0.7-0.4-1.2-0.9-1.3-1.4c0-0.1,0-0.1,0-0.2c0-0.4-0.3-0.7-0.7-0.7c-0.4,0-0.7,0.3-0.7,0.7c0,0.1,0,0.1,0,0.2
			c-0.1,0.5-0.6,1-1.3,1.4c-0.7,0.4-1.6,0.6-2.7,0.6c-1.1,0-2-0.2-2.7-0.6c-0.8-0.4-1.2-0.9-1.3-1.4c0-0.1,0-0.1,0-0.2
			c0-0.4-0.3-0.7-0.7-0.7c-0.4,0-0.7,0.3-0.7,0.7c0,0.1,0,0.1,0,0.2c-0.1,0.5-0.6,1-1.3,1.4c-0.7,0.4-1.6,0.6-2.7,0.6
			c-1.1,0-2-0.2-2.7-0.6c-0.8-0.4-1.2-0.9-1.3-1.4c0-0.1,0-0.1,0-0.2c0-0.4-0.3-0.7-0.7-0.7c-0.4,0-0.7,0.3-0.7,0.7
			c0,0.1,0,0.1,0,0.2c-0.1,0.5-0.6,1-1.3,1.4c-0.7,0.4-1.6,0.6-2.7,0.6c-1.1,0-2-0.2-2.7-0.6c-0.8-0.4-1.2-0.9-1.3-1.4
			c0-0.1,0-0.1,0-0.2c0-0.4-0.3-0.7-0.7-0.7c-0.4,0-0.7,0.3-0.7,0.7c0,0.1,0,0.1,0,0.2c-0.1,0.5-0.6,1-1.3,1.4
			c-0.7,0.4-1.6,0.6-2.7,0.6c-1.1,0-2-0.2-2.7-0.6c-0.8-0.4-1.2-0.9-1.3-1.4v-0.2c0-0.4-0.3-0.7-0.7-0.7c-0.4,0-0.7,0.3-0.7,0.7
			c0,0.1,0,0.1,0,0.2c-0.1,0.5-0.6,1-1.3,1.4c-0.7,0.4-1.6,0.6-2.7,0.6c-1.1,0-2-0.2-2.7-0.6c-0.8-0.4-1.2-0.9-1.3-1.4
			c0-0.1,0-0.1,0-0.2c0-0.4-0.3-0.7-0.7-0.7c-0.4,0-0.7,0.3-0.7,0.7c0,0.1,0,0.1,0,0.2c-0.1,0.5-0.6,1-1.3,1.4
			c-0.7,0.4-1.6,0.6-2.7,0.6c-1.1,0-2-0.2-2.7-0.6c-0.7-0.4-1.2-0.9-1.3-1.4c0-0.1,0-0.1,0-0.2c0-0.4-0.3-0.7-0.7-0.7
			c-0.4,0-0.7,0.3-0.7,0.7c0,0.1,0,0.1,0,0.2c-0.1,0.5-0.6,1-1.3,1.4c-0.7,0.4-1.6,0.6-2.7,0.6c-1.1,0-2-0.2-2.7-0.6
			c-0.8-0.4-1.2-0.9-1.4-1.4c0-0.1,0-0.1,0-0.2c0-0.4-0.3-0.7-0.7-0.7c-0.4,0-0.7,0.3-0.7,0.7c0,0.1,0,0.1,0,0.2
			c-0.1,0.5-0.6,1-1.3,1.4c-0.7,0.4-1.6,0.6-2.7,0.6h0l0.2,0.3l0.2,0.3l0,0l0.5,0.7c1.1-0.1,2-0.4,2.8-0.9c0.4-0.2,0.8-0.5,1.1-0.8
			c0.3,0.3,0.7,0.6,1.1,0.9c1,0.6,2.2,0.9,3.6,0.9c1.3,0,2.4-0.3,3.4-0.8c0.5-0.3,1-0.6,1.4-1c0.4,0.4,0.9,0.8,1.5,1.1
			c0.9,0.5,2,0.7,3.2,0.7c1.1,0,2.2-0.2,3-0.6c0.7-0.3,1.3-0.7,1.7-1.2c0.4,0.5,1.1,0.9,1.9,1.3c0.8,0.3,1.8,0.5,2.9,0.5
			c0.9,0,1.8-0.2,2.6-0.4c0.9-0.3,1.7-0.8,2.2-1.4c0.6,0.6,1.4,1.1,2.5,1.5c0.7,0.2,1.4,0.3,2.2,0.3c0.7,0,1.3-0.1,2-0.3
			c1.2-0.3,2.2-0.8,2.8-1.5c0.7,0.8,1.8,1.4,3.2,1.6c0.5,0.1,1,0.1,1.5,0.1c0.4,0,0.7,0,1.1-0.1c1.6-0.2,2.9-0.8,3.6-1.7
			c0.9,1.1,2.7,1.8,4.7,1.8c2.1,0,3.8-0.7,4.7-1.8c0.9,1.1,2.7,1.8,4.7,1.8c2.1,0,3.8-0.7,4.7-1.8c0.9,1.1,2.7,1.8,4.7,1.8
			c2.1,0,3.8-0.7,4.7-1.8c0.9,1.1,2.7,1.8,4.7,1.8c2.1,0,3.8-0.7,4.7-1.8c0.9,1.1,2.7,1.8,4.7,1.8c2.1,0,3.8-0.7,4.7-1.8
			c0.9,1.1,2.7,1.8,4.7,1.8c2.1,0,3.8-0.7,4.7-1.8c0.5,0.5,1.1,1,2,1.3l0.1-0.1l0,0l0.6-0.9c-0.3-0.1-0.5-0.2-0.8-0.3
			C221.7,294.1,221.2,293.5,221.1,293z"/>
		<path class="st1" d="M149.6,182.1v-5.3l8.2-8.7h-42.6l8.1,8.7v5.3H118l-8.7-8v42.7l8.7-8.2h5.3v5.4l-8.1,8.7h42.6l-8.2-8.7v-5.4
			h5.4l8.5,8.2v-42.7l-8.5,8H149.6z M155,199.2h-14.9v15h-7.4v-15h-14.9v-7.4h14.9v-15h7.4v15H155V199.2z"/>
		<path class="st1" d="M225.6,180.4c0,0-1.9,0.3-2.6,0.5c-0.5,0.1-2,0.5-3.5,1.8c-0.7,0.7-1.1,1.6-1.2,2.3l-2-0.3
			c-0.1-0.4-0.2-1-0.3-1.4c-0.1-0.3,0.1-0.8,0.6-1.3c1.3-0.9,1.9-2.7,1.2-4.1c-0.5-1-1.7-2.9-1.8-2.9l-0.6-0.9l-0.8,0.7
			c-0.2,0.2-1.8,1.5-2.5,2.8c-0.9,1.1-0.5,2.9-0.3,3.4l0.1,0.3l0.2,0.2c0.7,0.7,0.5,1.3,0.5,1.4c-0.2,0.5-0.7,1-0.9,1
			c-0.7-0.1-2.4-0.3-3.2-0.4c-0.5-0.9-1.2-2.2-1.4-2.8l0-0.1l0-0.1c-0.2-0.2-0.2-0.6-0.1-0.9c0.5-0.4,1.4-1.3,1.8-2.4
			c0.4-1.7-0.7-3.1-1.5-4.1c-0.2-0.2-0.4-0.5-0.5-0.7c-0.7-0.9-1.4-1.6-1.4-1.6l-0.3-0.2l-0.4-0.5l0,0l-0.1-0.1l-0.5,0.7l-0.1,0.1
			c0,0-0.7,0.7-1.3,1.5c-0.2,0.3-0.4,0.5-0.6,0.7c-0.8,1-1.9,2.4-1.6,3.9c0.5,1.2,1.3,2.1,1.8,2.5c0,0.3,0,0.7-0.1,0.9l-0.1,0.1
			l0,0.1c-0.2,0.5-0.9,1.9-1.4,2.8c-0.8,0.1-2.5,0.3-3.2,0.4c-0.2,0-0.6-0.6-0.9-1c0,0-0.2-0.6,0.5-1.3l0.2-0.2l0.1-0.3
			c0.1-0.6,0.6-2.3-0.4-3.6c-0.6-1.1-2.2-2.5-2.4-2.6l-0.8-0.7l-0.6,0.9c-0.1,0.1-1.3,1.9-1.8,2.9c-0.7,1.4-0.1,3.2,1.3,4.1
			c0.5,0.4,0.6,1,0.6,1.2c-0.1,0.5-0.2,1-0.3,1.5l-2,0.3c-0.1-0.7-0.4-1.5-1.2-2.3c-1.6-1.4-3-1.7-3.5-1.9c-0.7-0.2-2.6-0.5-2.6-0.5
			L181,180l1.4,1.9c4.7,6.5,5.1,6.6,5.4,6.7l0.1,0l0.2,0c0.2,0,0.5-0.1,1.4-0.2c2.1-0.5,6.9-1.5,13.4-1.5l1,0h0.3l0.2,0l0.3,0h0.3
			l1.1,0c6.5,0,11.3,1.1,13.4,1.5c0.8,0.2,1.1,0.2,1.4,0.2h0.2l0.3-0.1c0.2,0,0.6-0.2,5.3-6.7l1.4-1.9L225.6,180.4z M213.4,183.1
			c0,0,0.5-1.2-0.7-2.4C214,181.9,213.4,183.1,213.4,183.1c0,0-0.7,1.6-1.8,1.6C212.7,184.7,213.4,183.1,213.4,183.1z M202.8,180.8
			c0.4-0.7,0.2-1.6,0.2-1.9C203.1,179.2,203.3,180.1,202.8,180.8c-0.3,0.8-1.3,2.5-1.6,3.1C201.6,183.4,202.6,181.6,202.8,180.8z"/>
		<polygon class="st1" points="231.6,168.5 229.6,168.2 227.6,168 226.7,166.2 225.9,164.3 225,166.2 224.1,168 222.2,168.2 
			220.1,168.5 221.6,169.9 223.1,171.2 222.6,173.2 222.1,175.2 224,174.2 225.8,173.3 227.6,174.2 229.4,175.2 229,173.2 
			228.6,171.3 230.1,169.9 		"/>
		<path class="st1" d="M96.2,158.4l0.1,105.7l0.6,7.5l1.6,5.6l1.9,5.4l3.5,7.5l2.9,5l3.3,4.7l3.5,4.3l3.9,4.1l4.5,3.8l4.7,3.5
			l7.8,4.5l2.3,1l2.1,0.9l0,0l1.2,0.5l6,2.1l6.3,1.6l6.5,1.3l7.7,0.8l6.7-0.4l6.4-0.9l6.3-1.6l5.9-2l2.8-1.2l0.7-0.3l1.6-0.7
			l0.7-0.3l5.4-2.9l5.1-3.4l4.8-3.8l6.7-6.3l5.4-6.6l3.4-4.9l2.9-5.1l2.5-5.4l2.1-5.4l1.8-6.3l0.1-112.5H96.2z M171.2,162.2v65.5
			h-71l-0.1-65.5H171.2z M107.6,288.5l-0.1-0.2l-3.4-7.2l-1.8-5.1l-1.5-5.1l-0.6-7l0-32.4h134.5V270l-1.7,5.9l-1,2.7l0,0l-0.2,0.7
			L231,281l-0.1,0.1l-2.3,5l-2.8,4.8l-1,1.4l-1.6,2.4l-0.6,0.9l0,0l-0.1,0.1l-1.3,1.5l0,0l-1.1,1.4l0,0l-0.2,0.3l-1.4,1.7l-0.1,0.2
			l-0.8,0.9l-0.2,0.2l-0.7,0.6l-2.4,2.2l-2,1.8l-1,0.9l-0.3,0.3l-0.7,0.5l-3.9,3l-0.8,0.5l-1.5,1l-0.8,0.5l-1.2,0.8l-0.6,0.4
			l-5.2,2.8l-3.5,1.5l-0.5,0.2l-1.5,0.7l-0.8,0.3l-1.4,0.5l-3.5,1.1l0,0l-0.9,0.2l-5.1,1.3l-6.1,0.9l-6.3,0.4l-7.2-0.7l-6.2-1.2
			l-2.5-0.6l-1.9-0.5l-1.7-0.4l-3.8-1.4l-0.1,0l-0.8-0.3l-0.9-0.3l-0.6-0.3l-4.7-2.1l-1.2-0.7l-1.6-0.9l-1.4-0.8l-0.1-0.1l-0.5-0.3
			l-2.5-1.6l-3.7-2.7l-0.8-0.6l-0.5-0.4l-0.6-0.5l-0.6-0.5l-2.6-2.2l-3.1-3.2l-0.6-0.7l-0.4-0.5l0,0l-0.8-1l-2.1-2.6l-0.2-0.2
			l-0.6-0.9l-0.5-0.7l0,0l-0.2-0.3l-0.2-0.3l-1.1-1.5l-0.3-0.5l-0.5-0.8l-0.7-1.3l-0.9-1.6L107.6,288.5z M234.7,227.7H175v-65.5
			h59.7V227.7z"/>
		<path class="st1" d="M167.1,119.2L167.1,119.2c5.2-6,0-15.5,0-15.5l0-0.1l0,0.1C167.1,103.8,162,113.3,167.1,119.2L167.1,119.2z"
			/>
		<path class="st1" d="M170.5,111.3c0.1,1.1,0.1,2.2-0.1,3.2c-0.2,1.6-0.7,3-1.5,4.2h3.4v-0.3c0,0,1.4-8.8,3-9.7
			C175.3,108.7,172.7,109.3,170.5,111.3z"/>
		<path class="st1" d="M163.9,114.4c-0.1-1-0.2-2.1-0.1-3.2c-2.1-2-4.8-2.5-4.8-2.5c1.6,0.8,3,9.7,3,9.7v0.3h3.4
			C164.6,117.4,164.1,116,163.9,114.4z"/>
		<path class="st1" d="M167.1,127c0,0,2-1.1,3.5-3.4h-7.1C165.1,125.9,167.1,127,167.1,127z"/>
		<path class="st1" d="M168,119.9L168,119.9L168,119.9L168,119.9l-0.9,0.8l-0.8-0.8l0,0l0,0l0,0c0,0,0,0,0-0.1h-4.2
			c0.2,0.9,0.5,1.8,0.8,2.6h8.5c0.4-0.8,0.7-1.6,0.8-2.6L168,119.9C168,119.9,168,119.9,168,119.9z"/>
		<path class="st1" d="M158.7,125C158.7,125,158.8,125.1,158.7,125C158.8,125.1,158.7,125,158.7,125L158.7,125z"/>
		<path class="st1" d="M173,129.4C173,129.3,173,129.3,173,129.4C173,129.3,173,129.3,173,129.4C173,129.3,173,129.3,173,129.4z"/>
		<path class="st1" d="M176.8,107.4c-0.1-0.3-0.1-0.6-0.2-0.9C176.7,106.8,176.8,107.1,176.8,107.4z"/>
		<path class="st1" d="M175.5,126c0.2-0.4,0.4-0.7,0.5-1.1C175.9,125.2,175.7,125.6,175.5,126z"/>
		<path class="st1" d="M173,129.4c0,0-0.1,0.1-0.1,0.1C173,129.5,173,129.5,173,129.4z"/>
		<path class="st1" d="M173,129.4C173,129.3,173,129.3,173,129.4C173,129.3,173,129.3,173,129.4C173,129.3,173,129.3,173,129.4z"/>
		<path class="st1" d="M177.8,151.6c-1.7-0.1-3.7-0.3-5.6-0.3c-10.2-0.2-20.1,1.4-28.5,3.4c-4.8,1.1-9.1,2.4-12.9,3.7h3.4
			c3-1,6.2-1.9,9.6-2.8c8.4-1.8,18.1-3.4,28.3-3.2c1.9,0,3.9,0.2,5.6,0.3c7,0.5,12.9,1.4,17.6,2.8c3.3,0.9,6.2,1.9,8.6,2.9h2.7
			c-2.8-1.3-6.4-2.8-10.9-4C190.8,153.2,184.8,151.9,177.8,151.6z"/>
		<path class="st1" d="M248.6,119.6c-0.3-0.3-0.9-0.5-1.6-0.8c-0.3-0.2-0.6-0.3-0.9-0.3c-1.7-0.9-2.5-0.2-2.8,0l-0.9,1.1l-0.6,0.5
			l-2.6-0.8c-0.2-0.5-0.2-1.4-0.2-2.2c0-1.1-0.2-1.9-0.2-1.9l-0.2-0.3h-0.2c0,0-1.2-0.6-3.4-1.4c-1.7-0.6-2.2-0.6-2.3,0.3
			c-0.2,0.1-0.2,0.1-0.2,0.3c0,0.2-0.1,0.5-0.1,0.6c-0.2,0.5-0.9,2.2-1.7,3.7c-0.8,1.5-1.7,3.2-2.2,4.2c0,0.2-0.2,0.5-0.2,0.6
			c-0.9,1.6-1.2,2.9-0.3,3.4c0.2,0.1,0.3,0.1,0.5,0.3c0.1,0.2,0.3,0.2,0.3,0.3c0.2,0,0.3,0.2,0.3,0.3c-0.2,0.3-0.3,0.6-0.6,0.9
			c0,0.3-0.2,0.5-0.3,0.6c-0.5-0.3-1.3-0.6-2-0.9c-0.6-0.3-1.1-0.3-1.5-0.1c-0.5,0-0.9,0.3-1.4,0.9c-0.2,0-0.3,0.3-0.5,0.5
			c-0.6,0.6-1.2,1.2-1.9,1.2c-0.6,0-1.7-0.5-2.6-0.8c-0.3-0.2-0.8-0.3-0.9-0.3v-0.3c0.2-0.3,0.2-0.8,0.2-1.1v-0.5
			c0.1-1.2,0.1-2.8-0.8-3.2c-0.6-0.5-2.2-0.8-3.1-1.1l0.3-2.3h0.2v0.1c0.6,0.2,1.4,0.5,2.8-1.1c0.5-0.6,1.2-1.9,2.2-3.2
			c1.2-2.2,2.6-4.6,3.3-5.9c0.9-1.5,0.8-2.2-0.3-2.8c-0.3,0-0.6-0.1-1.1-0.3c-0.3-0.1-0.8-0.3-1.2-0.6c-1.4-0.6-2.2-0.8-2.8-0.5
			c-0.6,0.5-0.8,0.9-1.1,1.7c-0.1,0.1-0.1,0.3-0.1,0.5c-0.2,0.5-0.3,0.6-0.5,0.6c-1.2-0.3-2.5-0.6-3.7-1.1v-0.3
			c0-0.1,0.2-0.3,0.2-0.3c0-0.6,0.1-1.2-0.2-1.7c-0.2-0.6-0.5-1.1-1.2-1.4c-0.8-0.3-1.4-0.5-2.2-0.6c-0.5-0.2-1.1-0.2-1.7-0.5
			c-1.1-0.3-1.7,0.2-1.9,0.9c-0.2,0.5-0.2,1.1-0.2,1.5v0.3c0,0.1,0,0.1-0.1,0.1c-0.9-0.1-1.9-0.5-2.8-0.6v-1.9
			c0.2-0.8,0-1.1-0.5-1.5c-0.3-0.3-0.9-0.5-1.7-0.6c-0.9-0.3-1.6-0.5-2.2-0.3c-0.6,0.3-1.1,0.8-1.4,1.7c-0.5,0.9-1.4,4.8-2,7.3
			c-0.3,1.1-0.5,2-0.6,2.3c-0.2,0.6-0.2,1.2,0.2,1.9c0.3,0.6,0.6,1.1,1.2,1.4c0.2,0,0.2,0.1,0.3,0.1h0.2v0.9
			c0.2,0.6-0.5,1.4-0.8,1.7c-0.5-0.2-1.4-0.5-2.3-0.6c-0.8,0-1.2,0-1.5,0.1c-0.5,0.2-0.6,0.5-0.8,1.1c-0.2,0.5-0.3,0.9-0.6,1.2
			c-0.3,0.3-0.6,0.5-0.9,0.5c-0.9,0-4.3-0.6-5.6-0.8c0-0.6,0-1.7,0.2-2.2c0-0.9-0.3-1.2-1.1-1.4h-2c-0.6,0-0.9,0-1.1-0.1v-0.2
			c0-0.5,0.5-3.4,0.9-6.7c0.6-4,1.4-8.7,1.6-9.4c0.3-1.1-0.3-1.5-1.4-1.8c-0.5,0-1.1-0.1-1.5-0.1h-0.5c-0.5,0-0.8-0.2-1.1-0.2
			c-0.3,0-0.6-0.2-0.9-0.2c-0.6,0-0.9,0.3-1,0.9c0.3,0.4,0.6,0.7,0.8,1.1c0.1-0.3,0.2-0.6,0.2-1c0.3,0,0.5,0.2,0.8,0.2
			c0.3,0,0.8,0.2,1.1,0.2h0.5c0.6,0,1.1,0.1,1.4,0.1c0.5,0.2,0.8,0.3,0.6,0.6c0,0.3-0.2,1.5-0.5,3.1l-2.7-0.2
			c-0.4-1.1-0.9-2.1-1.4-3c-2-3.4-4.8-5.4-7.9-5.4c-3.1,0-5.8,2-7.8,5.2c-0.6,1-1.1,2.1-1.6,3.3l-2.5,0.3c-0.3-1.4-0.3-2.5-0.5-2.8
			c-0.2-0.5,0-0.8,0-0.8c0.2-0.2,0.5-0.2,0.9-0.2c0.6,0,1.4,0,2-0.2h1.5c0.1,0,0.1,0.1,0.1,0.3c0.2-0.3,0.4-0.6,0.7-0.9
			c-0.2-0.3-0.4-0.5-0.8-0.5H158c-0.8,0-1.5,0.1-2,0.1c-0.6,0-1.2,0-1.6,0.3c-0.5,0.3-0.6,0.9-0.5,1.9c0.3,1.4,1.7,13.5,2,15.9
			c-0.3,0-0.9,0.2-1.9,0.3c-2,0-2.2,0.9-2.2,2c0,0.2,0,0.5,0.2,0.6v0.6h-0.9c-0.6,0.2-2,0.3-3.2,0.6c-0.8,0.1-1.4,0.4-1.7,0.4
			c0,0,0,0,0,0c0,0-0.3,0.2-0.2,0c0,0,0.1,0,0.1,0c-0.2-0.3-0.3-0.8-0.3-1.2c-0.2-0.1-0.2-0.3-0.2-0.6c-0.5-0.9-0.8-1.4-0.8-1.4
			l-0.1-0.2h-0.3l-3.1,0.5c-0.3,0-0.5,0.1-0.8,0.1c-0.2,0-0.2,0.2-0.3,0.2c0-0.3-0.2-0.6-0.3-1.1c-0.1-0.5-0.5-0.9-0.5-1.2
			c0-0.3-0.2-0.5-0.2-0.5c0.5-0.2,0.8-0.3,1.1-0.3c0.5,0,0.8-0.3,0.8-0.8c0-0.6-0.5-1.9-0.6-2.9c-0.3-0.6-0.5-1.4-0.5-1.8
			c-0.3-1.7-1.7-7-1.9-7.6c-0.1-0.9-1.4-0.8-2.9-0.5c-0.3,0.2-0.6,0.2-0.9,0.3c-1.1,0.2-1.7,0.5-1.9,0.9c-0.3,0.5-0.2,0.9-0.2,1.5
			c0.2,0.6,0.2,1.1,0,1.2v0.2c-0.8,0.1-1.4,0.3-2,0.5c-0.2-0.2-0.2-0.2-0.2-0.3c-0.2-0.3-0.2-0.6-0.5-1.1c-0.2-0.3-0.3-0.5-0.3-0.5
			c-0.3-0.6-0.3-0.8-1.4-0.8c-0.8,0-2.6,0.5-3.9,0.8c-0.2,0-0.3,0-0.5,0.2c-1.1,0.2-1.2,0.8-1.1,1.4c0,0.3,0.2,0.6,0.3,0.9
			c0,0,0.2,0.2,0.2,0.3c0.2,0.5,0.3,0.6,0.3,0.9c0,0-0.1,0-0.3,0.2c-0.3,0-1.1,0.3-1.9,0.5c-0.9,0.3-1.7,0.5-2,0.6
			c-0.2,0-0.5-0.8-0.9-1.7c-0.2-0.3-0.2-0.6-0.3-0.9c-0.5-0.9-1.5-0.9-2.8-0.5c-0.9,0.3-1.7,0.8-2.5,1.1c-0.2,0.1-0.2,0.1-0.3,0.1
			l-0.1,0.2h-0.2c-0.3,0.2-0.5,0.3-0.8,0.5c-0.6,0.6-0.5,0.9,0.2,1.7c0.2,0.2,0.3,0.5,0.6,1.1c0.2,0.3,0.3,0.6,0.6,0.9v0.2
			c0.5,0.8,1.1,1.7,1.7,2.8c1.1,1.9,2.2,3.7,2.6,4.5c0.5,0.6,0.9,1.1,1.4,1.4c0.5,0.2,0.9,0.2,1.5,0c0.3-0.1,0.5-0.3,0.7-0.3
			c0,0-0.1,0.1-0.1,0.1c0,0.2,0.1,0.5,0.1,0.8v1.1c0,0,0.2,0.2,0.2,0.3h-0.2c-0.6,0.2-1.2,0.5-2,0.8c-0.5,0.2-0.9,0.5-1.2,0.6
			c-1.1,0.3-1.2,0.8-0.9,1.4c0,0.3,0.2,0.5,0.3,0.6c0.1,0.3,0.3,0.5,0.5,0.8c0,0.5,0.2,0.8,0,0.9c0,0.1-0.2,0.3-0.6,0.5
			c-0.2,0.2-0.5,0.3-0.8,0.5c-0.8,0.3-1.6,0.6-2.3,0.8c-0.2,0.2-0.3,0.2-0.6,0.2c0,0.2-0.2,0.2-0.3,0.2c-0.3-0.2-0.5-0.3-0.6-0.6
			v-0.2c-0.1-0.2-0.1-0.5-0.3-0.6c-0.8-1.6-1.6-1.6-1.6-1.6h-0.1c0,0-1.9,0.5-3.3,1.1c-0.5,0.3-0.6,0.3-0.8,0.5V129h-0.2
			c0-0.3-0.1-1.5-0.5-2.2c0.1-0.1,0.5-0.1,0.6-0.3c0.8-0.1,0.9-0.6,0.9-1.2c-0.1-0.5-0.5-0.9-0.8-1.6c-0.5-0.9-2.9-6.5-3.9-8.7
			c0-0.3-0.2-0.6-0.2-0.8c-0.3-0.6-0.5-0.9-0.9-1.2c-0.3-0.3-0.8-0.3-1.4-0.2c-0.5,0.2-1.1,0.3-1.9,0.6c-0.6,0.3-1.2,0.8-1.8,1.2
			c-0.6,0.6-0.9,1.1-1.1,1.5c0,0.6,0.1,1.1,0.3,1.5c0.3,0.3,0.3,0.6,0.3,0.6h-0.2c-0.5,0.3-1.1,0.6-1.9,0.9
			c-0.3,0.3-0.8,0.6-1.1,0.8c-0.5,0.2-0.8-0.9-1.1-1.6c-0.3-1.2-0.9-1.1-1.9-0.9c-0.2,0-0.3,0.2-0.6,0.2c-0.9,0.2-1.2,0.5-1.8,0.8
			c-0.2,0.3-0.5,0.5-0.9,0.8c-0.3,0.2-0.5,0.3-0.6,0.5c-0.3,0.3-0.5,0.5-0.5,0.8c0,0.2,0.2,0.3,0.3,0.5l0.2,0.3v0.2
			c0.2,0.1,0.3,0.5,0.6,0.9v0.1c1.6,2.3,5,7.7,5.7,9c0.9,1.4,1.7,0.8,2.8,0.1c0.1-0.1,0.5-0.3,0.8-0.5c0.2,0,0.3-0.1,0.5-0.1v0.1
			c0,0,0-0.1,0.2-0.1c0.1,0,0.3,0.1,0.5,0.5c0.1,0,0.1,0,0.1,0.1c0.5,0.5,2.5,3.9,4.5,7.3l4.5,8.2c0.1,0.5,0.5,1.1,0.6,1.7
			c0.6,1.2,1.2,2.6,2,4.5c0.2,0.3,1.2,2.6,2.2,4.9h1.2c-0.4-0.9-0.9-1.9-1.4-3.1c0.6-0.3,5-2.5,12.1-5.1c0.3-0.1,0.8-0.3,1.1-0.5
			l1.2,4.2c-0.8,0.3-1.5,0.6-2.3,0.8c-4,1.6-7.1,2.9-8.9,3.7h2.6c1.6-0.7,3.7-1.5,6.2-2.4c1.1-0.5,2.3-0.8,3.6-1.2
			c2-0.8,4.2-1.4,6.5-2.2c0.5-0.2,1.1-0.3,1.5-0.5c0.6-0.2,1.1-0.3,1.7-0.5c2.3-0.6,4.8-1.2,7.3-1.8c1.1-0.3,2.2-0.5,3.3-0.8
			c0.8-0.2,1.7-0.3,2.5-0.5c1.7-0.3,3.4-0.5,5.1-0.8c1.6-0.3,3.3-0.5,5-0.6c2-0.2,4-0.3,6-0.5h0.6c2.9-0.2,5.9,0,8.8,0.1
			c1.7,0,3.1,0.2,4.8,0.3c0.6,0.1,1.4,0.1,2,0.3c1.1,0.2,2,0.3,3.1,0.5c2.6,0.5,5.1,0.9,7.6,1.4c1.1,0.3,2.2,0.5,3.3,0.8
			c2.3,0.6,4.6,1.2,6.8,1.8c0.3,0.2,0.8,0.2,1.1,0.3c0.8,0.2,1.6,0.5,2.2,0.6c1.7,0.6,3.3,1.1,4.7,1.6c0.9,0.3,1.7,0.6,2.6,0.9
			c0.8,0.3,1.4,0.6,2,0.8c2.5,1,4.4,1.7,5.7,2.3h3.5c0.9-1.6,2.4-3.9,3.2-5.2c0.1,0,0.1-0.2,0.1-0.3c0.8-1.2,1.4-2.9,1.6-4
			c0.1-0.2,0.1-0.3,0.1-0.5c0.3-0.5,1.9-3.4,4-8c0.6-1.5,1.4-2.9,2.2-4.3c0.8-1.2,1.4-2.2,1.4-2.2l0.3-0.6h-0.2
			c0.6-0.9,1.1-1.5,1.4-2c0.3,0.1,1.1,0.3,2,0.8c1.6,0.6,2,0.5,2.3-0.5v-0.3h0.2V131c0.1-0.5,1.4-2.5,2.8-4.5
			c1.4-2.2,2.8-4.3,3.4-4.9C249.3,120.8,249.2,120.2,248.6,119.6z M85.7,120.8l0.2-0.2H86L85.7,120.8z M233.4,115.1
			c0.2-0.3,0.2-0.5,0.3-0.6v-0.3c0,0,0.2,0.2,1.1,0.5c1.5,0.5,2.5,0.9,2.9,1.1v1.4c0,0.6,0.2,1.2,0.2,1.7c-0.6-0.3-1.1-0.5-1.7-0.8
			c-1.5-0.6-2.8-1.2-3.4-1.6C233.1,115.9,233.4,115.4,233.4,115.1z M231.7,119c0.2-0.5,0.5-0.9,0.6-1.4c0.6,0.2,2,0.9,3.9,1.7
			c0.6,0.3,1.2,0.6,2,0.9l0.3,0.2h0.3l-2,3.6c-0.2-0.2-0.5-0.2-0.6-0.3c-2.3-1.2-4.5-2.3-5.4-2.8C231.1,120.2,231.4,119.6,231.7,119
			z M228.7,125.8h-0.1v-0.6c0.1-0.3,0.5-0.9,0.8-1.4c0.2-0.3,0.5-1.1,0.9-2c0.6,0.5,1.9,1.1,3.4,1.9l-1.4,3.4
			C230.5,126.4,229.1,125.9,228.7,125.8z M223.6,130.3c0.2-0.2,0.3-0.3,0.5-0.5c0.3-0.5,0.6-0.6,0.9-0.8c0.2,0,0.5,0,0.8,0.3
			c0.8,0.3,2,0.8,2.3,0.9l-3.2,2.5c-0.9-0.5-1.7-0.8-2.6-1.2C222.7,131.2,223.2,130.7,223.6,130.3z M216.2,139.1l-1.9,1.6l-0.3-2.2
			C214.8,138.6,215.4,138.9,216.2,139.1z M213.9,137.2l-0.2-2.5c2,0.6,3.9,1.4,5.6,2l-2,1.6C216.2,138,215.1,137.5,213.9,137.2z
			 M217.4,139.6c0.6,0.3,1.4,0.6,2,0.9c-1.4,0.9-2.5,1.7-2.6,1.9c-0.6-0.3-1.4-0.5-2-0.8L217.4,139.6z M218.4,138.8l2.2-1.6
			c0.8,0.3,1.5,0.6,2.2,0.9c-0.8,0.5-1.4,1.1-2.2,1.5C219.9,139.4,219.1,139.1,218.4,138.8z M221.6,136.4l3.4-2.5
			c0.8,0.3,1.4,0.6,2.2,0.9c-0.3,0.2-0.5,0.3-0.6,0.3c-0.3,0.5-0.8,0.8-1.1,0.9c-0.5,0.3-1.1,0.8-1.7,1.2
			C223,137.1,222.4,136.8,221.6,136.4z M223.8,133.4l-3.4,2.6c-2-0.8-4.3-1.7-6.8-2.5l-0.4-4.2C217.3,130.7,220.8,132.1,223.8,133.4
			z M196.1,116.8v-0.3c1.1,0.2,2.9,0.5,5.1,0.9l-0.8,2.9c-2.2-0.5-3.9-0.9-5-1.1c0.5-0.6,0.8-1.2,0.8-2
			C196.1,117.1,196.1,117,196.1,116.8z M198.6,115.7l0.6-3.2c2.3,0.6,5.1,1.2,7.7,2l-0.9,2.8c-0.3,0-0.5,0-0.8-0.2
			C202.7,116.5,200.4,116.2,198.6,115.7z M202.3,117.6c0.9,0.2,2,0.5,2.9,0.8c1.4,0.2,2.6,0.5,3.9,0.9l-0.6,2.8
			c-1.1-0.2-2-0.5-3.3-0.6c-1.2-0.3-2.5-0.6-3.7-0.9L202.3,117.6z M207.1,117.6l0.9-2.9c1.7,0.5,3.4,0.9,4.9,1.4L212,119
			C210.5,118.5,208.8,118,207.1,117.6z M210.2,119.4c1.1,0.5,2,0.8,2.9,1.1v0.3l-0.3,2.2c-0.9-0.2-2-0.5-3.2-0.6L210.2,119.4z
			 M212.3,133c-1.1-0.3-2.3-0.8-3.6-1.2l-0.3-4c1.2,0.3,2.3,0.8,3.6,1.1L212.3,133z M212.5,134.3l0.3,2.5c-1.2-0.3-2.5-0.8-3.7-1.1
			l-0.2-2.6C210.2,133.5,211.4,134,212.5,134.3z M213,138l0.3,2.9c-1.2-0.5-2.5-0.9-3.9-1.4l-0.2-2.8
			C210.5,137.2,211.7,137.5,213,138z M216.2,125.5c0.5,0.1,0.5,1.4,0.3,2.3v0.5c0,0.2,0,0.5-0.1,0.8v0.3c-1.1-0.5-2.2-0.8-3.4-1.2
			l-0.3-3.7l0.5,0.2C213.1,124.5,215.6,125,216.2,125.5z M216.2,119.4c-0.8,0.8-1.2,0.9-1.4,0.8V120c-0.5-0.3-1.1-0.5-1.9-0.8
			l1.1-2.9c1.4,0.3,2.6,0.8,3.6,1.1C217,118.3,216.5,119.1,216.2,119.4z M216.7,109.5c0.2-0.2,0.2-0.3,0.3-0.6
			c0.1-0.5,0.3-0.8,0.5-0.9c0.3-0.1,0.9-0.1,1.9,0.5c0.5,0.2,0.9,0.3,1.2,0.5c0.5,0.2,0.8,0.3,0.9,0.5c0.3,0.2,0.5,0.5,0,1.2
			c-0.2,0.2-0.3,0.6-0.5,0.9c-1.2-0.5-2.8-0.9-4.5-1.5C216.5,109.8,216.7,109.7,216.7,109.5z M213.6,110.5c0.5,0.2,0.9,0.2,1.2,0.3
			c2.3,0.6,4.2,1.2,5.6,1.7c-0.6,1.2-1.4,2.6-2.2,3.9c-1.2-0.3-3.4-0.9-5.9-1.7l1.1-4.2H213.6z M205.5,106.6v-0.3
			c0-0.5,0-0.9,0.2-1.2c0-0.2,0.1-0.3,0.5-0.2c0.6,0.2,1.2,0.3,1.9,0.5c0.6,0.2,1.2,0.3,1.9,0.6c0.5,0.2,0.6,0.3,0.8,0.6v1.2
			c0,0.1,0,0.3-0.2,0.3v0.3c-1.1-0.3-2.2-0.6-3.2-0.9c-0.6-0.1-1.2-0.3-1.9-0.5C205.5,106.9,205.5,106.7,205.5,106.6z M202.9,107.8
			c0.6,0.1,1.1,0.1,1.4,0.1c0.9,0.2,1.9,0.5,2.9,0.6c1.1,0.3,2.3,0.6,3.4,0.9c0.3,0.2,0.6,0.3,1.2,0.5c0.2,0.1,0.3,0.1,0.5,0.1
			l-1.1,4.3c-1.2-0.5-2.6-0.8-4-1.1c-1.9-0.5-3.7-0.9-5.3-1.4L202.9,107.8z M196.7,103.8c0.2-0.5,0.5-0.8,0.8-0.9
			c0.3,0,0.8,0,1.5,0.3c0.8,0.2,1.2,0.3,1.4,0.5c0.2,0,0.2,0.2,0.2,0.5c-0.2,0.6-0.2,1.2-0.2,1.7c-2-0.5-3.4-0.8-4-0.9
			C196.5,104.4,196.7,104.1,196.7,103.8z M196.1,106c0.6,0.2,2.3,0.6,4.6,1.1c0.2,0.2,0.5,0.5,1.1,0.6l-0.9,4
			c-2.8-0.6-5-1.1-5.9-1.4C195.3,108.9,195.8,107.4,196.1,106z M194.4,114.5c-0.2-0.3-0.3-0.8-0.2-1.1c0.2-0.3,0.3-1.1,0.5-2
			c0.8,0.1,2,0.5,3.6,0.9l-0.8,3.3c-1.4-0.2-2.3-0.3-2.3-0.3v0.2H195C194.7,115.2,194.4,114.9,194.4,114.5z M194.7,120.5l16.7,3.7
			l0.5,3.6c-4.3-1.4-9-2.8-14.2-4c-0.8-0.2-1.4-0.3-1.4-0.3h-0.3c-1.1-0.3-2.2-0.5-3.3-0.6L194.7,120.5z M181.1,131.2l0.8,2.2
			c-4.3-0.6-8.8-0.9-13.5-0.9c1.4-0.2,2.6-0.9,3.9-2.2l-0.1,0.2C175.2,130.6,178.1,130.9,181.1,131.2z M175.6,124.9
			c0.1,0,0.3,0,0.4,0c0.4-0.9,0.8-1.9,1.1-3c0.1,0,0.2,0,0.3,0l1.2,3.2c-0.9-0.1-1.8-0.2-2.6-0.3c-0.2,0.4-0.3,0.7-0.5,1.1
			c1.2,0.1,2.4,0.1,3.6,0.3l1.4,3.7c-2.5-0.3-4.9-0.5-7.6-0.6c0,0,0,0,0,0c0,0,0,0,0,0c0,0,0,0,0,0c0.9-0.9,1.8-2.1,2.5-3.4
			c0.2-0.4,0.4-0.7,0.5-1.1C175.9,124.9,175.8,124.9,175.6,124.9z M180.4,126.4c2.2,0.3,4.5,0.8,6.7,1.1l-2.5,2.9
			c-0.9-0.2-1.9-0.3-2.8-0.3L180.4,126.4z M183.8,131.5l-1.1,1.1l-0.5-1.4C182.8,131.4,183.2,131.4,183.8,131.5z M185.1,131.7
			c1.4,0.1,2.8,0.3,4.2,0.6l-1.4,2c-1.5-0.3-2.9-0.5-4.5-0.8L185.1,131.7z M186,130.6l2.5-2.8c1.2,0.1,2.3,0.5,3.6,0.8l-2,2.6
			C188.8,131,187.4,130.7,186,130.6z M189.3,126.8l2.6-3.1c1.1,0.2,2.2,0.5,3.3,0.6l-2.3,3.1C191.6,127.3,190.5,127,189.3,126.8z
			 M189.7,121.6c0.5-0.5,0.6-0.9,0.8-1.4c0.2-0.3,0.3-0.6,0.3-0.6h0.9c0.6,0.1,1.4,0.3,1.9,0.5l-2.2,2.5c-0.8-0.2-1.5-0.2-2.2-0.3
			C189.4,122.1,189.6,121.9,189.7,121.6z M190.7,123.6l-2.6,2.9c-2.6-0.5-5.4-0.9-8.1-1.2l-1.2-3.4
			C182.8,122.4,186.8,122.8,190.7,123.6z M179.5,118.2h0.6c0.5,0,0.9-0.2,1.1,0h0.3c-0.2,0.9-0.2,2.6-0.2,2.9
			c-0.9-0.2-2-0.2-3.1-0.3h-0.5c0,0-0.1,0-0.2-0.1c0.2-0.9,0.4-1.8,0.5-2.7C178.4,118.2,178.8,118.2,179.5,118.2z M179.2,104.7
			c-0.2,1.1-0.5,2.5-0.6,3.7H178c0.1,0.4,0.2,0.8,0.2,1.2l0.1,0.3c0,0,0,0.1,0,0.1c0,0.2,0,0.3,0,0.4c-0.1-0.7-0.2-1.4-0.3-2.1
			c-0.2-1.4-0.5-2.6-0.9-3.8L179.2,104.7z M167.4,96c3,0,5.6,2.3,7.5,5.8c0.1,0.2,0.3,0.5,0.4,0.8c0.5,1.2,1,2.5,1.4,3.9
			c0.1,0.3,0.1,0.6,0.2,0.9c0.4,1.9,0.7,3.9,0.7,6c0,9.7-4.5,17.5-10.1,17.5c-5.6,0-10.1-7.8-10.1-17.5
			C157.3,103.8,161.8,96,167.4,96z M144.3,128.2c0.6-0.1,1.1-0.1,1.7-0.3l2.2,2.5c-1.7,0.3-3.4,0.5-5,0.8l-1.9-2.3
			C142.3,128.7,143.4,128.4,144.3,128.2z M140.6,127.9l-2.8-3.4c1.6-0.3,2.9-0.6,4.3-0.9l2.2,2.5l0.8,0.9c-0.2,0-0.5,0-0.8,0.2
			C143.1,127.5,141.9,127.6,140.6,127.9z M149.2,131.4l1.4,1.5l0.5,0.6c-1.9,0.3-3.6,0.5-5.3,0.8l-1.7-2.2
			C145.7,132,147.4,131.7,149.2,131.4z M150.5,131.4l-0.2-0.1c0.6,0,1.2,0,1.9-0.2l-0.5,1.5L150.5,131.4z M149.6,130.3l-2.3-2.6
			c1.1-0.2,2.2-0.3,3.3-0.5c0.9-0.2,2-0.3,3.2-0.5l-1.2,3.3C151.6,130,150.5,130.1,149.6,130.3z M158.9,125.5
			c-0.1-0.2-0.1-0.3-0.2-0.5c-1.2,0-2.3,0.1-3.4,0.3l1.1-3.4h0.5c0.1,0,0.4-0.1,0.6-0.1c0.3,1.1,0.8,2.2,1.2,3.2
			c0.1,0.2,0.2,0.3,0.3,0.5c-0.1-0.2-0.2-0.3-0.3-0.5C158.8,125.2,158.9,125.3,158.9,125.5z M159.2,126.1c0,0-0.1-0.1-0.1-0.2
			C159.1,125.9,159.2,125.9,159.2,126.1L159.2,126.1c0.2,0.3,0.4,0.7,0.5,0.9c0.5,0.9,1.1,1.7,1.7,2.5l-0.1-0.2
			c-2.6,0-5,0.2-7.4,0.5l1.1-3.3C156.3,126.2,157.8,126.1,159.2,126.1z M153.5,130.9c2.8-0.2,5.7-0.5,8.7-0.5c1.1,1.1,2.5,1.9,3.9,2
			c-0.9,0-1.9,0.2-2.8,0.2c-3.7,0.2-7.3,0.5-10.5,0.8L153.5,130.9z M155.6,104.9l2-0.3c-0.7,2.1-1.1,4.4-1.3,7
			C156.2,109.4,155.9,106.9,155.6,104.9z M154.1,118.5c1.7-0.1,2.4-0.5,2.6-0.6c0.1,0.9,0.3,1.9,0.5,2.7h-0.4
			c-0.5,0-0.6,0.2-0.8,0.2h-0.3c-0.9,0-1.7,0.2-2.5,0.2v-1.1c-0.1-0.2-0.1-0.3-0.1-0.5C153,119,153.2,118.5,154.1,118.5z
			 M150.5,122.4c1.5-0.2,3.1-0.3,4.6-0.5l-1.1,3.6c-1.2,0.1-2.3,0.3-3.6,0.6c-1.4,0.2-2.8,0.5-4.2,0.6l-2-2.3l-0.8-0.9
			c0.2,0,0.5-0.2,0.8-0.2C146.4,123,148.4,122.7,150.5,122.4z M140.9,120c0.2,0,0.3-0.1,0.6-0.1l2.8-0.5c0,0.2,0.2,0.5,0.3,0.8
			c0,0.2,0,0.5,0.2,0.6c0.1,0.5,0.3,0.9,0.5,1.2c-0.3,0-0.6,0.1-0.9,0.1c-0.6,0.2-1.1,0.2-1.7,0.3l-2.2-2.5H140.9z M141.4,122.7
			c-4.3,0.8-8.4,1.7-12.2,2.8c-0.9,0.1-1.9,0.5-3,0.8c-1.2,0.3-2.5,0.6-3.6,1.1l0.3-3.1l3.3-0.8l3-0.8l10.1-2.5L141.4,122.7z
			 M121.4,136.9l0.3-2.5c1.1-0.5,2.3-0.8,3.6-1.2l-0.3,2.5C123.7,136.1,122.5,136.4,121.4,136.9z M124.8,136.9l-0.3,2.6
			c-1.2,0.3-2.5,0.8-3.6,1.2l0.3-2.6C122.4,137.7,123.6,137.2,124.8,136.9z M121.9,133.2l0.6-4.6c1.1-0.5,2.3-0.8,3.6-1.1l-0.6,4.6
			C124.2,132.4,123,132.7,121.9,133.2z M121.6,120.5c0.8-0.3,1.7-0.6,2.8-0.9l0.8,2.8c-1.2,0.3-2.5,0.6-3.3,0.8v-1.9
			C121.9,121,121.7,120.7,121.6,120.5z M125.5,119.3c0.2,0,0.5-0.2,0.8-0.2c1.1-0.3,2-0.6,3-0.8c1.1-0.3,2-0.5,2.9-0.6
			c0.2,0,0.3,0,0.5-0.2l0.5,2.9c-1.2,0.2-2.6,0.5-3.9,0.9c-0.9,0.2-2,0.5-3,0.6L125.5,119.3z M133.7,117.4c2.3-0.5,3.7-0.8,4.6-0.9
			c0,0,0.2,0.2,0.2,0.5c0,0.5,0.3,0.9,0.5,1.5c0.2,0.1,0.3,0.3,0.3,0.6c-1.2,0.2-3.1,0.6-5.1,1.1L133.7,117.4z M139.5,112.6
			c0.2,0.9,0.5,1.9,0.5,2.3c-0.3,0.2-0.8,0.3-1.2,0.3c0,0-0.8,0.2-2.6,0.6l-0.6-3.4c1.2-0.3,2.5-0.5,3.9-0.5
			C139.4,112.2,139.4,112.5,139.5,112.6z M133.5,105v-0.9c0.2-0.1,0.3-0.3,1.1-0.5c0.3,0,0.6,0,1.1-0.2c0.9-0.2,1.6-0.3,1.6-0.3
			c0.2,0.2,0.3,1.2,0.6,2.3c-1.2,0.2-2.8,0.5-4.3,0.8C133.7,106,133.5,105.5,133.5,105z M132.7,107.5c2-0.5,3.9-0.8,5.4-0.9
			c0.3,1.5,0.8,3.2,0.9,4v0.3c-1.9,0.2-3.7,0.5-5.6,0.8l-0.9-4C132.6,107.7,132.7,107.7,132.7,107.5z M134.4,112.6l0.6,3.4
			c-0.8,0.2-1.9,0.3-3.1,0.6c-0.9,0.1-1.8,0.3-2.8,0.5c-0.3,0.2-0.6,0.2-0.9,0.3l-0.8-3.2c0.6-0.2,1.1-0.3,1.7-0.5
			C130.9,113.2,132.6,112.9,134.4,112.6z M124.1,106.4c0.2-0.2,0.3-0.2,0.5-0.2c1.2-0.3,2.9-0.8,3.6-0.8c0.3,0,0.3,0,0.5,0.2
			c0,0.2,0.2,0.3,0.3,0.6c0.1,0.3,0.3,0.5,0.3,0.8c0,0,0.1,0.2,0.1,0.3h-0.1c-0.9,0.3-1.9,0.5-3,0.8c-0.6,0.1-1.1,0.3-1.7,0.6
			c0-0.3-0.2-0.8-0.5-1.2c0-0.1,0-0.1-0.1-0.3c0-0.3-0.2-0.5-0.2-0.6C123.7,106.4,123.7,106.4,124.1,106.4z M126.2,109.2
			c1.1-0.2,2-0.5,3-0.8c0.3-0.2,0.8-0.2,1.1-0.3h0.5c0.3,0,0.5-0.2,0.8-0.2l0.9,3.9c-1.1,0.3-2.2,0.5-3.2,0.8
			c-0.9,0.3-1.9,0.5-3,0.8c-0.9,0.3-2,0.6-2.9,0.9l-1.2-3.9C123.4,110.1,124.8,109.7,126.2,109.2z M112.8,110.6v-0.2
			c-0.2-0.3-0.3-0.5-0.5-0.6h-0.2v-0.1c0.2,0,0.3-0.2,0.5-0.2l0.2-0.2c0.1,0,0.1,0,0.3-0.2c0.6-0.3,1.5-0.9,2.5-1.1
			c0.8-0.3,1.2-0.5,1.4-0.2c0.1,0.3,0.3,0.6,0.5,0.9c0.3,0.6,0.5,1.2,0.9,1.7c-0.3,0.2-0.5,0.2-0.6,0.2c-2,0.8-3.4,1.2-4,1.4
			C113.4,111.5,113.1,110.9,112.8,110.6z M115.4,114.9c-0.5-0.6-0.8-1.2-1.1-1.9c0.6-0.2,1.7-0.6,3.4-1.2c1.1-0.3,2.2-0.6,3.4-1.1
			l1.1,3.9c-1.9,0.6-3.4,1.1-4.5,1.4c-0.6,0.3-1.2,0.5-1.4,0.6C116,116,115.7,115.6,115.4,114.9z M118.8,120.2l0.2,0.2
			c-0.3-0.2-0.6-0.5-1.1-1.1c-0.2-0.3-0.5-0.9-1.1-1.7c0.3-0.1,0.6-0.1,0.9-0.3c0.5-0.2,1.2-0.5,2-0.8l1.1,3.1
			C119.6,119.9,118.8,120.2,118.8,120.2z M120.7,116.2c1.7-0.5,3.6-1.1,5.6-1.7h0.2l0.8,3.3c-0.3,0-0.6,0.2-0.9,0.2
			c-1.5,0.5-3.1,0.9-4.3,1.4L120.7,116.2z M117.9,125.8c0.5-0.2,0.9-0.3,1.4-0.6c0.8-0.3,1.4-0.6,1.7-0.6c0.3,0,0.5,0,0.5-0.2
			c0.2,0,0.3,0,0.5-0.2l-0.5,3.4c-0.9,0.3-2,0.6-2.9,0.9c0-0.3,0-0.8-0.2-1.2c-0.2-0.3-0.3-0.8-0.5-1.1c-0.2-0.2-0.2-0.2-0.2-0.3
			C117.7,125.9,117.7,125.8,117.9,125.8z M114.3,131.4c0.3-0.1,0.6-0.3,1.1-0.5c0.1,0,0.3-0.2,0.5-0.2c0.6-0.3,1.2-0.5,1.9-0.6
			c1.2-0.5,2.3-0.8,3.6-1.2l-0.6,4.6c-0.9,0.5-1.9,0.8-2.9,1.1c-1.4,0.5-2.6,0.9-3.9,1.4l-3.7-3.1
			C111.4,132.4,112.8,131.8,114.3,131.4z M116.8,139.7l0.9,0.8l1.2,0.9c-0.6,0.3-1.2,0.5-1.7,0.8l-2.2-1.7
			C115.5,140.3,116.2,140,116.8,139.7z M114,139.7l-2.3-1.7c0.6-0.3,1.2-0.6,2-0.8l2.2,1.7C115.2,139.2,114.6,139.6,114,139.7z
			 M118,139.2c0.6-0.2,1.4-0.5,2-0.8l-0.1,2.3L118,139.2z M117.1,138.5l-2.2-1.7c0.9-0.3,1.9-0.6,2.8-1.1c0.9-0.3,1.9-0.6,2.8-0.9
			l-0.3,2.5C119.1,137.7,118,138.2,117.1,138.5z M107.3,129.8c1.1-0.5,2.5-0.9,2.9-1.1c0,0,0.2,0.2,0.6,0.9c0.2,0.3,0.2,0.5,0.3,0.6
			c0,0.3,0.2,0.6,0.3,0.9c-0.8,0.3-1.7,0.6-2.3,0.9l-2.6-2.2C106.7,130,107,130,107.3,129.8z M105.3,124.2c0.3,0.6,0.5,0.9,0.5,1.2
			c0.1,0,0,0,0,0.1c-0.3,0-0.5,0.2-0.6,0.2h-0.3c-0.6,0.3-1.5,0.6-2.5,1.1l-1.9-3.1c1.4-0.8,2.8-1.4,3.7-1.7
			C104.7,123.1,105.2,123.9,105.3,124.2z M97,115.7c0.5-0.5,1.1-0.9,1.6-1.1c0.6-0.3,1.2-0.5,1.7-0.6h0.5c0.2,0,0.3,0.3,0.5,0.8
			c0.1,0.1,0.1,0.5,0.3,0.8c0.2,0.1,0.2,0.3,0.3,0.5c-0.6,0.2-1.1,0.5-1.7,0.6c-0.5,0.3-1.1,0.5-1.7,0.8c-0.5,0.1-1.1,0.5-1.6,0.8
			c-0.1-0.3-0.1-0.5-0.5-0.8c-0.1-0.3-0.1-0.6-0.1-0.8C96.2,116.3,96.5,116,97,115.7z M98.4,118.6c0.6-0.3,1.2-0.6,1.7-0.8
			c0.8-0.3,1.4-0.6,2-0.8c0.6,1.2,1.2,2.6,1.7,4c-0.9,0.3-2.2,0.9-3.7,1.5c-0.5,0.2-1.1,0.5-1.7,0.8c-0.3,0.2-0.6,0.3-0.8,0.3
			l-2.2-3.7C96.3,119.6,97.4,119.1,98.4,118.6z M86.6,120.8c-0.1-0.2-0.1-0.2-0.1-0.3c0,0,0.1,0,0.5-0.1c0.5-0.3,0.8-0.5,1.1-0.8
			c0.3-0.3,0.6-0.5,1.2-0.6c0.3,0,0.6-0.1,0.8-0.1c0.3,0,0.5-0.2,0.5,0.1c0.3,0.6,0.6,1.4,0.9,1.9c-1.6,0.9-3,1.7-3.6,2
			C87.1,121.7,86.6,120.8,86.6,120.8z M88.4,123.8c0.9-0.5,3.3-1.9,6-3.3l2,3.7c-2.8,1.4-5.3,2.5-6,2.9
			C89.8,126.1,89.1,124.9,88.4,123.8z M95.3,130.3c-0.5,0.2-0.8,0.5-1.1,0.6c-0.5,0.3-0.9,0.6-1.2,0.2c-0.3-0.5-1.1-1.7-1.9-2.9
			c0.6-0.3,1.7-0.9,3.3-1.6l1.5,3.6C95.7,130.1,95.4,130.3,95.3,130.3z M95.3,126.1c1.1-0.5,2-0.9,3.1-1.4c0.5-0.1,0.8-0.5,1.1-0.6
			l0.6,1.1l1.4,2.2c-0.4,0.2-0.9,0.5-1.4,0.6c-0.6,0.3-1.1,0.6-1.7,0.9c-0.6,0.3-1.1,0.6-1.6,0.8L95.3,126.1z M100.1,132.3
			c-0.5,0.3-0.9,0.6-1.1,0.6c-0.6-0.9-1.1-1.5-1.2-1.8c-0.3-0.3-0.3-0.2-0.1-0.2c-0.2-0.2-0.2-0.2-0.3-0.3c0.3-0.2,0.6-0.3,1.1-0.5
			c0.6-0.3,1.1-0.6,1.7-0.9c1.6-0.8,3.1-1.6,4.3-2.2v0.2c0.3,0.2,0.6,2.2,0.6,2.2v0.2C103.5,130.3,101.4,131.5,100.1,132.3z
			 M105.8,133.5l-2.5-1.9c0.8-0.5,1.5-0.8,2.2-1.1l2.5,2C107.2,132.9,106.4,133.2,105.8,133.5z M108.9,133.4l3.7,2.9
			c-0.6,0.3-1.4,0.6-2,0.9l-2.6-2.2l-1.2-0.8C107.5,134,108.1,133.7,108.9,133.4z M110,154.2c-0.2-0.5-0.3-0.8-0.5-1.2
			c-0.3-0.6-0.5-1.1-0.8-1.7c0.9-0.5,3.7-1.9,7.9-3.7l1.4,3.1C113.5,152.5,110.6,153.9,110,154.2z M122.5,149
			c-1.2,0.5-2.5,0.9-3.6,1.4l-1.2-3.3c1.4-0.6,3.1-1.2,4.8-1.8c1.1-0.5,2.3-0.9,3.6-1.2c0.2,0,0.2-0.2,0.3-0.2l1.1,3.4
			c-0.5,0.2-0.9,0.3-1.4,0.5C124.8,148.2,123.6,148.7,122.5,149z M134.1,151c-0.5,0.2-1.1,0.3-1.5,0.5c-2.3,0.6-4.5,1.4-6.5,2h-0.2
			l-1.4-4c0.5-0.2,1.1-0.3,1.5-0.5c2-0.8,4.2-1.4,6.5-2.2c0.2,0,0.3,0,0.5-0.1l1.1,4l0.2,0.2C134.3,150.8,134.1,150.8,134.1,151z
			 M127.5,143.6c1.5-0.6,3.3-1.1,5.1-1.6c0.5-0.2,1.1-0.3,1.5-0.5c0.6-0.2,1.1-0.3,1.7-0.5c0.3-0.2,0.6-0.2,1.1-0.3l0.6,3.6
			c-0.6,0.1-1.1,0.3-1.7,0.5c-0.6,0.2-1.1,0.3-1.7,0.5c-0.5,0.1-1.1,0.3-1.5,0.5c-1.6,0.5-2.8,0.8-4.2,1.2L127.5,143.6z
			 M143.1,148.7c-2.5,0.5-4.9,1.1-7.3,1.9h-0.5l-1.2-3.9v-0.3c0.6-0.2,1.1-0.3,1.7-0.5c2.3-0.6,4.6-1.1,7.3-1.7v0.6l0.8,3.7
			C143.7,148.5,143.4,148.5,143.1,148.7z M138,140.6c1.7-0.5,3.4-0.9,5.1-1.2c1.1-0.1,2.2-0.3,3.3-0.6c0.5,0,0.9-0.2,1.4-0.2
			l0.6,3.4c-0.6,0.2-1.4,0.3-2,0.3c-1.1,0.3-2.2,0.5-3.3,0.6c-1.5,0.5-2.9,0.8-4.5,1.1L138,140.6z M148.8,147.4
			c-0.8,0.2-1.7,0.3-2.5,0.5c-0.5,0.2-0.9,0.3-1.4,0.3l-0.8-4.3c0.6-0.2,1.4-0.2,2.2-0.3c0.8-0.2,1.7-0.5,2.5-0.5
			c1.4-0.3,2.8-0.5,4.2-0.8l0.6,4.3C151.9,147,150.4,147.1,148.8,147.4z M149.4,141.9l-0.6-3.4c1.7-0.3,3.4-0.5,5.1-0.8
			c1.6-0.1,3.3-0.3,4.8-0.5l0.2,3.1v0.3c-1.7,0.1-3.4,0.3-5,0.5C152.4,141.4,151,141.6,149.4,141.9z M163.7,145.6
			c-1.5,0.1-3.1,0.3-4.8,0.5c-1.4,0.2-2.8,0.3-4.2,0.5l-0.5-4.3c1.4-0.2,3.1-0.3,4.6-0.5c1.7-0.1,3.3-0.3,4.8-0.3V145.6z M160,137.2
			c1.5-0.2,3.2-0.2,5-0.2c0.6-0.2,1.4-0.2,2-0.2h2.6l0.3,3.3h-2.2c-0.9,0-1.9,0-2.8,0.2c-1.7,0-3.3,0.1-4.8,0.1L160,137.2z
			 M173.9,145.6c-2.8-0.2-5.6-0.2-8.4,0h-0.8v-4.2h0.2c0.9-0.2,1.8-0.2,2.8-0.2c2.2,0,4.2,0,6.2,0.2V145.6z M171,140.2l-0.3-3.1
			c1.2,0,2.5,0,3.7,0.2c1.4,0,2.6,0.2,3.9,0.2l-0.2,3.3c-1.2-0.2-2.5-0.2-3.7-0.3C173.3,140.3,172.1,140.3,171,140.2z M182.8,146.5
			c-0.5,0-1.1-0.1-1.6-0.1c-0.6-0.2-1.4-0.2-2-0.3c-1.4-0.2-2.8-0.2-4.2-0.3v-4.2c1.4,0,2.8,0.1,4.2,0.3c0.6,0,1.4,0.2,2,0.2
			c0.6,0.2,1.4,0.2,2,0.3L182.8,146.5z M179.2,140.8l0.2-3.2c0.6,0,1.2,0.1,1.9,0.1c1.1,0.2,2,0.2,3.1,0.3c1.7,0.3,3.4,0.5,4.9,0.8
			l-0.5,3.2c-1.4-0.3-2.9-0.5-4.5-0.8c-1.1-0.1-2-0.1-3.1-0.3C180.6,140.8,180,140.8,179.2,140.8z M193,148.5
			c-0.3-0.2-0.8-0.2-1.1-0.3c-2.5-0.6-5-1.1-7.6-1.4c-0.2,0-0.3,0-0.5-0.1l0.5-4.2c2.6,0.3,5.1,0.8,7.6,1.2c0.6,0.2,1.2,0.3,2,0.3
			L193,148.5z M190,142.2l0.3-3.2c0.6,0.2,1.1,0.2,1.5,0.3c1.1,0.1,2.2,0.5,3.3,0.6c1.7,0.3,3.4,0.8,5.1,1.1l-0.8,3.4
			c-1.4-0.5-2.9-0.8-4.3-1.1c-1.1-0.3-2.2-0.5-3.3-0.6C191.3,142.5,190.7,142.3,190,142.2z M195.1,149c-0.5-0.2-0.8-0.2-1.1-0.3
			l0.8-4.3h0.3c2.3,0.5,4.6,1.1,6.8,1.7c0.3,0.2,0.8,0.2,1.1,0.3h0.2L203,147l-1.1,3.7C199.8,150.1,197.5,149.5,195.1,149z
			 M209.9,143.9l-1.1,3.1c-1.2-0.5-2.3-0.8-3.6-1.1c-0.6-0.3-1.4-0.5-2.2-0.6c-0.3-0.2-0.8-0.3-1.1-0.3c-0.6-0.2-1.1-0.3-1.4-0.5
			l0.8-3.2c0.2,0,0.3,0.2,0.6,0.2c0.3,0.2,0.8,0.3,1.1,0.3c0.8,0.3,1.6,0.5,2.2,0.6c1.7,0.5,3.3,0.9,4.7,1.4h0.1L209.9,143.9z
			 M210.9,144c0.6,0.2,1.1,0.3,1.6,0.5c0.6,0.3,1.4,0.6,2,0.8c1.9,0.6,3.4,1.2,4.8,1.7l-1.2,3.2c-1.1-0.5-2.3-0.9-3.6-1.4
			c-0.6-0.2-1.4-0.5-2-0.6c-0.9-0.3-1.7-0.6-2.6-0.9V147L210.9,144z M209.9,153.3c-1.4-0.5-3-1.1-4.7-1.5c-0.6-0.2-1.4-0.5-2.2-0.6
			c0,0,0-0.2-0.1-0.2l0.1-0.5l1.3-3.9c0.3,0.1,0.6,0.3,0.9,0.3c1.7,0.5,3.3,0.9,4.7,1.5c0.9,0.1,1.7,0.5,2.6,0.8
			c0.1,0,0.3,0.2,0.3,0.2l-0.3,0.9l-1.4,3.2C210.6,153.5,210.3,153.5,209.9,153.3z M214.5,155c-0.6-0.3-1.2-0.6-2-0.9h-0.3l0.3-0.9
			l1.4-3.4c0.2,0.1,0.5,0.1,0.6,0.3c3.2,1.1,5.9,2.2,7.7,2.9l-2,4.2C218.8,156.6,216.8,155.8,214.5,155z M222.5,158.3
			c-0.3-0.1-0.8-0.5-1.4-0.6l2-4.2c0.8,0.3,1.4,0.6,1.7,0.8C224.1,155.6,223.2,157,222.5,158.3z M226.3,152.2
			c-0.1,0.2-0.1,0.3-0.3,0.3c-0.2,0.3-0.3,0.5-0.5,0.8c-0.8-0.3-3-1.4-6.5-2.8l1.4-3.1c3.6,1.4,5.9,2.5,6.7,2.9
			C226.9,151,226.6,151.8,226.3,152.2z M227.4,149.3c-1.4-0.6-5.9-2.8-12.9-5.3c-0.6-0.2-1.4-0.5-2-0.6c-0.9-0.3-1.7-0.6-2.6-0.9
			c-1.4-0.3-3-0.8-4.7-1.2c-0.6-0.3-1.4-0.5-2.2-0.6c-0.3-0.2-0.8-0.2-1.1-0.3c-2.2-0.6-4.5-1.1-6.8-1.5c-1.1-0.3-2.2-0.5-3.3-0.6
			c-2.5-0.5-5-0.9-7.6-1.2c-1.1-0.2-2-0.3-3.1-0.3c-0.6-0.2-1.4-0.2-2-0.3c-1.5,0-3.1-0.2-4.8-0.3c-2.5-0.2-5-0.2-7.4-0.2h-2
			c-2,0.2-4,0.2-6,0.3c-1.7,0.2-3.4,0.3-5,0.5c-1.7,0.2-3.4,0.5-5.1,0.8c-0.8,0-1.7,0.2-2.5,0.3c-1.1,0.2-2.2,0.5-3.3,0.6
			c-2.5,0.5-4.9,1.1-7.3,1.7c-0.6,0-1.1,0.3-1.7,0.5c-0.5,0-1.1,0.2-1.5,0.3c-2.3,0.6-4.5,1.4-6.5,2c-1.2,0.5-2.5,0.9-3.6,1.2
			c-7.7,2.9-12.7,5.6-14.2,6.3c-0.3-0.8-0.6-1.4-0.8-1.9c0-0.2-0.2-0.2-0.2-0.3c0.2,0,0.2,0,0.3-0.2c0,0,0.2,0,0.3-0.2
			c2-1.1,4.2-2.3,6.5-3.4c0.2,0,0.5-0.1,0.6-0.3c0.8-0.3,1.5-0.6,2.3-0.8l0.9-0.5c0.5-0.1,1.1-0.5,1.7-0.6l0.6,0.5l0.1-0.8
			c1.1-0.5,2.3-0.9,3.6-1.2v0.2l0.8-0.3c0,0,5.7-1.9,9.9-3c0.2,0,0.5-0.1,0.6-0.1c4.2-1.1,9.9-2,9.9-2l0.9-0.2
			c1.9-0.3,3.6-0.6,5.4-0.8l0.2,0.1l0.1-0.1c3.6-0.5,7.1-0.8,11-0.9c15.2-0.6,29.4,2.2,40.7,5.4c2.6,0.8,4.8,1.6,4.8,1.6l0.8,0.3
			v-0.2c1.2,0.5,2.6,0.9,3.7,1.4l0.2,0.5l0.3-0.3c1.9,0.6,3.4,1.2,4.9,1.9c0.5,0.3,1.1,0.5,1.7,0.8c0.9,0.3,2.2,0.9,3.4,1.6
			c2,0.8,3.2,1.5,3.9,1.9C227.7,148.5,227.5,148.8,227.4,149.3z M228.1,134.1c-0.6-0.3-1.4-0.6-2.2-0.9l3.1-2.3l2,0.9
			C230.5,132.3,229.4,133.2,228.1,134.1z M235.6,132.7l-6.3-3.1c0.3-0.5,0.9-1.2,1.1-1.7v-0.5c1.5,0.6,3.7,1.5,5.9,2.5
			c0.3,0.2,0.6,0.2,0.9,0.3C236.9,130.6,236.3,131.5,235.6,132.7z M237.6,129.3c-0.5-0.3-0.9-0.5-1.4-0.6c-0.9-0.5-2-0.8-2.9-1.2
			l1.4-3.4c0.6,0.3,1.1,0.5,1.5,0.8c1.1,0.5,2,1.1,2.9,1.5L237.6,129.3z M242.4,128.9c-0.6,0.9-0.9,1.5-1.1,1.9v0.2
			c0,0,0,0.2-0.2,0.3l-0.3-0.2c-0.6-0.5-1.4-0.9-2.3-1.2l1.6-2.8c1.1,0.5,2,0.9,2.6,1.4C242.5,128.6,242.4,128.7,242.4,128.9z
			 M244.2,125.8c-0.3,0.6-0.6,1.2-0.9,1.7c-1.2-0.8-3.4-1.9-5.6-2.9l2-3.7c2.2,1.1,4.3,2.2,5.9,3.1
			C245.2,124.5,244.7,125.1,244.2,125.8z M247.8,120.8c-0.5,0.5-1.1,1.4-1.9,2.5l0.3-0.5c-1.1-0.5-2.3-1.2-3.7-1.8l1.5-1.7h0.2
			c0,0,0.1-0.3,1.4,0.2c0.3,0.2,0.6,0.3,0.9,0.5c0.6,0.1,1.1,0.3,1.4,0.6C247.9,120.5,247.9,120.7,247.8,120.8z"/>
		<rect x="157" y="254.6" class="st1" width="3.1" height="1.9"/>
		<rect x="161.7" y="254.6" class="st1" width="3.1" height="1.9"/>
		<rect x="166.5" y="254.6" class="st1" width="3.1" height="1.9"/>
		<rect x="183.2" y="243.3" class="st1" width="2.3" height="1.9"/>
		<path class="st1" d="M108,289.2c0.4-0.2,1.1-0.7,1.1-0.7c0.3-0.3,0.6-0.5,1-0.8c1.6-1.4,2.9-2.2,3.9-2.5c1.3-0.4,2.9-0.6,4.8-0.8
			c0.3,0,0.6-0.1,0.9-0.1c1.4-0.1,2.8-0.2,4.1-0.9c0,0,0.1,0,0.1,0c0.6-0.3,1.2-0.8,1.8-1.1c0.2-0.2,0.4-0.3,0.7-0.5
			c0.7-0.4,1.3-0.8,2.1-1.1c0.6-0.2,1.2-0.2,1.8-0.3c0.4,0,0.7,0,1.1-0.1c0.3,0,0.7-0.1,1-0.1c0.3,0,0.6,0,0.9-0.1
			c0.6-0.1,1.3-0.2,2-0.3c0.1,0,0.1,0.1,0.1,0.1l0.1-0.1c1-0.2,2-0.5,3-0.8c1.5-0.5,3-1.2,4-2.2c1-1,2.4-1.8,3.6-2.6
			c0.3-0.2,0.6-0.4,0.9-0.6h0.2c0-0.1,0-0.1,0-0.1c0.5-0.3,1-0.6,1.5-1c0.6-0.5,1.2-0.9,1.9-1.3c0.5-0.3,0.9-0.6,1.4-1
			c0.3-0.2,0.5-0.5,0.7-0.7h0v0c0.1-0.1,0.3-0.3,0.4-0.4c0.1-0.1,0.2-0.2,0.3-0.4c0.1-0.1,0.2-0.2,0.3-0.3c0.2,0,0.4-0.2,0.4-0.3
			c0,0,0.1,0,0.1-0.1c0.4-0.2,0.9-0.2,1.4-0.1c0.3,0,0.7,0.1,1.1,0.1c0.6,0,1.1-0.2,1.6-0.3c0.2-0.1,0.4-0.1,0.6-0.2
			c1.3-0.3,2.4-0.1,3.8,0.6c1.8,1,3,0.7,4.2-0.8l0.4-0.5c0.7-0.9,1.4-1.8,1.9-3c0-0.1,0.1-0.1,0.1-0.2c0.6-1.2,1.4-2,2.5-2.5
			c0.6-0.3,1.3-0.5,2.2-0.6c0.4,0,0.7-0.1,1.1-0.1v6c0,0,0,0-0.1,0c-0.3,0.1-0.7,0.1-1,0.2c-0.5,0.2-1.2,0.4-1.7,0.8
			c-0.3,0.2-0.6,0.5-0.8,0.8c-0.1,0.1-0.3,0.3-0.4,0.4c0,0,0,0,0,0c-0.7,0.6-1.7,1.2-2.3,1c-0.1,0-0.2,0-0.2,0
			c-0.2,0-0.3,0.1-0.4,0.3c-0.1,0.2,0,0.5,0.3,0.6c0,0,0.1,0,0.1,0c0.1,0,0.3,0.1,0.4,0.1c0,0,0.1,0,0.2,0c0.4,0,0.9-0.2,1.3-0.4
			c0.5-0.3,1-0.6,1.3-0.9c0.2-0.2,0.4-0.4,0.5-0.5c0.2-0.2,0.4-0.5,0.6-0.6c0.4-0.3,1-0.5,1.4-0.6c0.4-0.1,0.9-0.2,1.3-0.3
			c0.5-0.1,1.1-0.2,1.7-0.4c1.1-0.4,2.1-0.9,3-1.3c1-0.5,1.5-1.3,1.4-2.3c0,0,0-0.1,0-0.2c0.2,0,0.3,0,0.4,0c0.1,0,0.2,0,0.4,0
			c1.1-0.1,1.9-0.7,2.7-1.3c0.3-0.2,0.7-0.5,1-0.6c0.5-0.3,1-0.5,1.5-0.7c0.8-0.3,1.7-0.6,2.5-0.9c1.9-0.6,3.9-0.5,6.1-0.6
			c1.2,0,2.5,0,3.7-0.1c0.6-0.1,1-0.1,1.3,0c0.4,0.1,0.7,0.3,1.1,1.1c0.2,0.3,0.3,0.6,0.5,0.9c0.3,0.7,0.7,1.4,1.2,2
			c0.7,0.7,1.2,1.5,1.8,2.2c0.3,0.4,0.6,0.8,0.9,1.2c0.1,0.2,0.2,0.3,0.4,0.5c0.3,0.3,0.5,0.7,0.8,1c0.5,0.7,1,1.3,1.6,2
			c0.3,0.4,0.7,0.7,1.1,1c0.2,0.2,0.4,0.4,0.6,0.6c0.2,0.2,0.3,0.3,0.4,0.5c0.2,0.3,0.5,0.6,1,0.9c0.3,0.2,0.6,0.2,1,0.4
			c0.8,0.3,1.7,0.5,2.6,0.6c0.3,0.1,0.6,0.1,0.9,0.2c0.5,0.1,1,0.1,1.5,0.2c0.2,0,0.4,0.1,0.6,0.1c0,0,0.1,0,0.1,0
			c0.8,0.1,1.6,0.2,2.1,0.5c0.2,0.2,0.4,0.4,0.7,0.6c0.3,0.3,0.5,0.6,0.9,0.8c0.5,0.4,1.1,0.5,1.7,0.6c0.3,0.1,0.6,0.1,0.9,0.2
			l0.5,0.2c1.2,0.4,2.4,0.9,3.6,1.4l0.3,0.1c0.4,0.2,0.7,0.3,1,0.5c0.3,0.1,0.5,0.2,0.8,0.2c0.1,0,0.2,0,0.2,0v-0.9
			c-0.3-0.1-0.9-0.3-1.6-0.7l-0.3-0.1c-1.2-0.5-2.5-1-3.7-1.4l-0.5-0.2c-0.3-0.1-0.7-0.2-1-0.3c-0.5-0.1-1-0.2-1.3-0.4
			c-0.2-0.2-0.5-0.4-0.7-0.6c-0.2-0.3-0.5-0.6-0.8-0.8c-0.9-0.6-2.1-0.7-3.2-0.8c-0.5,0-1-0.1-1.4-0.2c-0.3-0.1-0.6-0.1-0.9-0.2
			c-1.2-0.2-2.4-0.4-3.3-0.9c-0.3-0.2-0.5-0.4-0.7-0.7c-0.1-0.2-0.3-0.3-0.5-0.5c-0.2-0.2-0.5-0.4-0.7-0.6c-0.4-0.3-0.7-0.5-0.9-0.9
			c-0.5-0.6-1-1.3-1.5-2c-0.4-0.5-0.8-1-1.2-1.5c-0.3-0.4-0.6-0.8-0.9-1.2c-0.6-0.7-1.1-1.5-1.8-2.3c-0.4-0.5-0.8-1.1-1.1-1.8
			c-0.2-0.3-0.3-0.7-0.5-1c-0.2-0.3-0.3-0.5-0.5-0.7v-5.4c0-0.8-0.2-1.5-0.7-2c-0.7-0.7-1.6-0.7-1.7-0.7h-3.6v-4.3
			c0-0.6-0.2-0.9-0.4-1.2c-0.1-0.1-0.3-0.2-0.5-0.2v-3.8c0-0.4,0-0.6-0.2-0.9c0-0.1,0.1-0.1,0.1-0.2c0-0.1,0-0.2-0.1-0.3l-3-6.5
			c-0.2-0.6-0.6-0.8-0.9-0.8c-0.6,0-1,0.7-1.2,0.9l-3.6,6.2v0l-23,8.4c-0.2,0.1-0.3,0.2-0.3,0.4v1.2c-0.1-0.1-0.2-0.1-0.3-0.1
			l-4.2,0v-1.1c0-0.1,0-0.3-0.1-0.3c-0.1-0.1-0.2-0.1-0.4-0.1l-4.4,0.3c-0.2,0-0.4,0.2-0.4,0.5l-0.5,18.8c-0.2,0.2-0.4,0.4-0.6,0.7
			c0-0.1-0.1-0.3-0.1-0.4c-0.2-0.4-0.9-1-1.2-1.2c-0.5-0.3-1-0.3-1.4-0.2l-0.6,0.1c-0.9,0.1-2,0.1-2.6,1.1c-0.8,1.1-0.9,2-1,3.1
			l0,0.2c0,0.5,0,1,0.1,1.6c0.1,0.2,0.1,0.3,0.2,0.5c0,0.1,0,0.1,0.1,0.2c-0.2,0.1-0.3,0.2-0.5,0.3c-0.5,0.3-1.1,0.7-1.6,1
			c-0.3-0.6-0.6-1.3-1.1-1.9c-0.6-0.7-1.3-1-2-1.3c-0.2-0.1-0.4-0.2-0.6-0.3c-0.8-0.4-1.7-0.4-2.6,0c-1.1,0.6-2,1.8-2.2,3.1
			c0,0.2,0,0.4,0,0.6c0,0.3,0,0.6-0.1,0.8c-0.1,0.2-0.2,0.3-0.3,0.5c-0.1,0.2-0.3,0.4-0.4,0.7c-0.1,0.3-0.2,1.4,0,2.3
			c-0.7,0.1-1.3,0.2-1.6,0.3c-0.6,0.1-1.2,0.1-1.8,0.1c-1,0-2.1,0.1-3.1,0.4c-1.1,0.3-2.1,1-3,1.7c-0.6,0.4-1.1,0.8-1.7,1.1
			c-1.2,0.6-2.5,0.7-3.8,0.8c-0.3,0-0.6,0.1-0.9,0.1c-2,0.2-3.6,0.5-5,0.9c-1.1,0.3-2.5,1.2-4.3,2.7c-0.6,0.5-1.2,1-1.8,1.5
			L108,289.2z M200.1,251.6c0,0,0.6,0,1,0.4c0.3,0.3,0.4,0.7,0.4,1.3v4.6c-0.5-0.2-1-0.1-1.8-0.1c-1.2,0.1-2.4,0.1-3.6,0.1
			c-2.1,0-4.3,0-6.3,0.6c-0.6,0.2-1.2,0.4-1.8,0.6l-0.1-7.6H200.1z M195.4,245.9c0.1,0.1,0.1,0.2,0.1,0.5v4.3h-7.7l-0.1-5l7.3,0.1
			C195.1,245.8,195.3,245.8,195.4,245.9z M191.2,233.8c0.1-0.1,0.2-0.3,0.3-0.3c0,0,0,0.1,0.1,0.1l2.4,5.3l0.2,0.4l0.1,0.2h-2.9
			l-3.3-0.1L191.2,233.8z M191.2,240.4l3.2,0.1c0.1,0.1,0.3,0.2,0.3,0.6v3.7l-6.9-0.1l-0.1-4.2L191.2,240.4z M179.8,264.7
			c-0.8,0.4-1.9,0.9-2.9,1.3c-0.3,0.1-0.6,0.2-0.9,0.2v-5.8c0.6-0.1,1.1-0.1,1.8-0.2c0.5-0.1,1-0.1,1.3,0.1c0.1,0.1,0.2,0.2,0.3,0.4
			c0.1,0.1,0.2,0.2,0.3,0.3c-0.2,0.1-0.3,0.2-0.3,0.4c0,0.3,0.2,0.5,0.5,0.5c0.2,0,0.3,0,0.4,0c0.1,0.3,0.2,0.6,0.4,0.7
			c0,0,0,0,0.1,0c0,0.2,0,0.4,0,0.6C180.7,263.9,180.4,264.4,179.8,264.7z M186.8,240.6l0.3,18.9c0,0,0,0,0,0.1
			c-0.5,0.2-1,0.4-1.4,0.6c-0.4,0.2-0.7,0.5-1,0.7c-0.8,0.5-1.5,1.1-2.3,1.1c-0.4,0-0.7,0-0.9-0.1c-0.1-0.2-0.1-0.4-0.3-0.5v-9.5
			h-0.5c0.5-0.4,0.2-1.2,0.2-1.9c-0.1-0.8,0.7-2.1,0.1-2.7c-0.4-0.4-2.1-0.6-2.7-0.6c-1,0-2,0-3,0.1c-0.9,0-2,0.3-2.9,0.2
			c-0.8-0.1-1.5-0.2-2.4-0.3L186.8,240.6z M154.6,249.2l3.5-0.2v1c0,0.1,0,0.3,0.1,0.4c0.1,0.1,0.2,0.1,0.3,0.1l4.1,0v2.6
			c0,0.2,0.2,0.4,0.4,0.5l0.8,0.1c0.1,0,0.3,0,0.4-0.1c0.1-0.1,0.2-0.2,0.2-0.4v-0.1c0.1,0.1,0.2,0.1,0.2,0.2c1,0.2,0.4-2,0.9-2.5
			c0.6-0.7,1.6-0.7,2.5-0.7c1.9,0.1,3.8-0.1,5.7,0.1l2.8,1.2c0.5,0.1,1.1-0.1,1.6,0c0.5,0.1,1,0.3,1.6,0.3c0.1,0.2,0.3,0.4,0.4,0.5
			c0,0,0,0,0.1,0v8c0,0,0,0,0,0c-0.1-0.2-0.3-0.5-0.6-0.7c-0.6-0.4-1.4-0.3-2.1-0.2c-0.7,0.1-1.4,0.2-2.1,0.2
			c-0.5,0-1.1,0.1-1.6,0.1c-2.6,0.3-4.4,1-5.7,3.8c-0.5,1.1-1.1,1.9-1.8,2.8l-0.4,0.5c-0.8,1.1-1.6,1.3-2.9,0.5
			c-1.6-0.8-2.9-1-4.4-0.7c-0.2,0-0.4,0.1-0.6,0.2c-0.5,0.1-0.9,0.3-1.3,0.3c-0.3,0-0.6,0-0.9-0.1c-0.5-0.1-1-0.1-1.6,0L154.6,249.2
			z M146.5,270.9l0-0.2c0.1-1,0.2-1.8,0.8-2.6c0.4-0.6,1.1-0.6,1.9-0.7l0.6-0.1c0.4,0,0.6-0.1,0.8,0.1c0.2,0.2,0.8,0.7,0.9,0.9
			c0.1,0.2,0.1,0.5,0.1,0.8c-0.1,0.1-0.2,0.2-0.3,0.3c-0.5,0.3-0.9,0.6-1.4,0.9c-0.7,0.4-1.3,0.9-2,1.4c-0.4,0.3-0.8,0.5-1.2,0.8
			c0,0,0,0,0,0c-0.1-0.1-0.1-0.3-0.2-0.4C146.5,271.6,146.4,271.4,146.5,270.9z M135.6,277c0.1-0.2,0.2-0.3,0.3-0.5
			c0.1-0.2,0.2-0.4,0.3-0.7c0.1-0.3,0.2-0.7,0.2-1.1c0-0.2,0-0.4,0-0.5c0.1-0.9,0.9-1.9,1.7-2.4c0.4-0.2,1-0.4,1.7,0
			c0.2,0.1,0.4,0.2,0.6,0.3c0.6,0.3,1.2,0.6,1.6,1.1c0.4,0.5,0.7,1.2,1,1.8c-0.5,0.4-1,0.7-1.4,1.1c-1.4,1.4-4,2.2-6.1,2.6
			C135.5,278.3,135.5,277.4,135.6,277z"/>
		<path class="st1" d="M64.7,314.6c0.8-0.6,0.8,0,1.7,0.6c0.8,0.8,7.2,6.9,7.6,7.6c0.5,0.8,1.6,1.1,1.6,1.1s1.4-1.1,2.3-2
			c0.2-0.2,0.3-0.3,0.5-0.5c0.8-1.1,0.3-1.4-0.3-2.2c0-0.2-0.2-0.2-0.2-0.2c-0.6-0.6-1.1,0-1.1,0s-0.9,0.8-1.9,0
			c-0.9-0.8-6.7-6.4-7.6-7.2c-0.9-0.9-1.1-1.1-1.9-0.5c-0.8,0.6-1.4,1.6-2,2.2c0,0-0.6,0.6,0,1.1C64,315.3,64,315.3,64.7,314.6z"/>
		<path class="st1" d="M95.5,331.5h-9.1c-0.3,0-0.6,0.3-0.6,0.6v2.3c0,0.3,0.3,0.6,0.6,0.6h2.2v15.6h-2.2c-0.3,0-0.6,0.3-0.6,0.6
			v2.3c0,0.3,0.3,0.6,0.6,0.6h9.1c0.5,0,0.6-0.3,0.6-0.6v-2.3c0-0.3-0.2-0.6-0.6-0.6h-2.2V335h2.2c0.5,0,0.6-0.3,0.6-0.6v-2.3
			C96.2,331.8,96,331.5,95.5,331.5z"/>
		<path class="st1" d="M250.4,289.7c0.9-0.9,0.9-1.6,0.5-2c-0.5-0.5-1.4-0.9-2.5-1.6c-0.9-0.5-0.6,0.8-0.6,1.4
			c0.2,0.8-1.4,1.9-2.3,3.1c-1.1,1.4-4.8,5.8-4.8,5.8s-0.3-0.6-0.9-0.9c-0.6-0.3-0.8,0.3-1.4,1.1c-0.6,0.8,0.3,0.9,0.8,1.4
			c0,0,1.3,1.2,1.9,1.9c0.6,0.6,1.1,0.2,1.7-0.5c0.8-0.6-0.2-0.9,0.3-1.4c0.5-0.3,3.4-3.7,5.5-6.1
			C249.3,290.8,250.1,289.8,250.4,289.7z"/>
		<path class="st1" d="M82.4,331.5h-8c-0.3,0-0.5,0.3-0.5,0.6v2.3c0,0.3,0.2,0.6,0.5,0.6h2.3l-5.3,13.6L65.9,335h2.2
			c0.3,0,0.6-0.3,0.6-0.6v-2.3c0-0.3-0.3-0.6-0.6-0.6H60c-0.3,0-0.6,0.3-0.6,0.6v2.3c0,0.3,0.3,0.6,0.6,0.6h1.7l7.5,18.2
			c0.2,0.5,0.3,0.9,0.8,0.9h3.1c0.5,0,0.6-0.5,0.8-0.9L81,335h1.4c0.3,0,0.6-0.3,0.6-0.6v-2.3C83.1,331.8,82.8,331.5,82.4,331.5z"/>
		<path class="st1" d="M84,296.1l0.2,0.2c0,0,2,1.9,3.3,2.8c0.5,0.5,0.8,0.8,0.6,0.8c0.8,0.5,1.3,0.8,1.3,0.8s0.8-1.6,2-2.6
			c1.1-1.1,3.1,1.4,4,2.3c1.1,1.1,0,1.4-0.9,1.6c-1.1,0-2.2-1.1-2.2-1.1l-1.1,1.7c0,0,0.8,1.2,1.9,2c1.1,0.9,2.5,0.5,4.8-2.2
			c0.3-0.3,0.5-0.8,0.6-1.1v-0.9c-0.5-2.2-3.9-4.7-5.5-5.3c-1.9-0.9-4.2,1.9-4.2,1.9l-1.4-1.4l-0.6-0.5c0,0,0.2-0.5,0.6-0.9
			c0.3-0.3,0.6-0.8,1.1-1.1c1.1-0.8,0.5-1.2-0.2-1.9c-0.3-0.3-0.6-0.5-0.9-0.3c-0.2,0.1-0.3,0.3-0.6,0.5c-0.6,0.8-1.7,2-2.8,3
			c-0.2,0-0.2,0.2-0.3,0.3C82.8,295.1,83.2,295.5,84,296.1z"/>
		<path class="st1" d="M116.3,347.5h-3c-0.3,0-0.5,0.3-0.5,0.6v2.5h-6.7V335h2.2c0.3,0,0.6-0.3,0.6-0.6v-2.3c0-0.3-0.3-0.6-0.6-0.6
			h-9.2c-0.3,0-0.6,0.3-0.6,0.6v2.3c0,0.3,0.3,0.6,0.6,0.6h2.3v15.6h-2.3c-0.3,0-0.6,0.3-0.6,0.6v2.3c0,0.3,0.3,0.6,0.6,0.6h17.2
			c0.3,0,0.6-0.2,0.6-0.5v-5.6C116.9,347.8,116.6,347.5,116.3,347.5z"/>
		<path class="st1" d="M176,331.5h-7.8c-0.3,0-0.6,0.3-0.6,0.6v2.3c0,0.3,0.3,0.6,0.6,0.6h2.3l-5.3,13.6l-5.6-13.6h2.2
			c0.3,0,0.6-0.3,0.6-0.6v-2.3c0-0.3-0.3-0.6-0.6-0.6h-8.1c-0.3,0-0.6,0.3-0.6,0.6v2.3c0,0.3,0.3,0.6,0.6,0.6h1.7l7.5,18.2
			c0.2,0.5,0.3,0.9,0.8,0.9h3.1c0.5,0,0.6-0.5,0.8-0.9l7.2-18.2h1.3c0.5,0,0.6-0.3,0.6-0.6v-2.3C176.6,331.8,176.5,331.5,176,331.5z
			"/>
		<path class="st1" d="M78.7,304.2c0.5,0.5,1.4,1.1,1.9,0.3c0.5-0.6,0.3-1.7,0.3-1.7s-1.4-0.9-0.8-2.2c0.8-1.2,1.7-0.3,2.5,0.5
			c0.8,0.8,0.6,2.3,0.3,3.3c-0.3,0.8,0.3,0.9,1.1,0.8h0.2c0.9-0.2,1.6-0.5,3-0.2c0,0,0.1,0,0.3,0.2c1.1,0.3,2,1.9,1.6,2.7
			c-0.5,0.9-0.8,0.8-1.6,0.3c-0.2,0-0.3,0-0.3-0.2c-1.1-0.5-1.4-0.9-2,0c-0.6,0.9-0.3,1.6,0.6,2.3c0.5,0.3,1.1,0.6,1.7,0.8
			c1.1,0.1,2.5,0.1,3.4-0.9c1.4-1.7,0.6-3.9-0.5-5.9c-0.6-1.1-1.9-1.4-3-1.4c-1.2,0-2.2,0.3-2.2,0.3l0.3-1.2c0.2-1.1-0.5-1.9-1.6-3
			c-0.2-0.3-0.3-0.5-0.6-0.8c-1.4-1.6-3.4-0.9-5.5,1.2c-1.4,1.7-0.6,3.1,0,3.9C78.2,303.7,78.5,304,78.7,304.2z"/>
		<path class="st1" d="M254.2,300c0,0,0.9,0,1.7-0.2c0.2,0,0.3,0,0.5-0.2c0.6-0.3,1.6-1.4,2.7-2.5c1.4-1.2,0.9-3.6-1.4-5
			c-0.5-0.3-0.8-0.3-1.3-0.3c-1.7,0-3.3,1.7-4.5,2.7c-1.4,1.2-0.8,3-0.8,3s-1.1-0.2-1.7,0c-0.3,0.1-0.5,0.1-0.9,0.5
			c-0.3,0.3-0.9,0.8-1.9,1.7c-1.9,1.9-0.5,4.2,0.5,5c0,0,0.9,0.5,1.4,0.9c0.2,0,0.3,0.2,0.3,0.2c0.8,0.5,1.9,0.2,4.2-1.7
			C255.4,302.2,254.2,300,254.2,300z M253.9,296.4c0.5-0.5,1.1-1.4,2-1.9h0.5c0.8,0,1.1,0.8,0.5,1.6c-0.1,0.3-0.3,0.5-0.5,0.6
			c-0.6,0.8-1.4,1.2-1.9,1.1C254,297.5,253.5,296.9,253.9,296.4z M252,300.9c-0.9,0.9-1.9,2.5-2.5,2.5c-0.3,0-0.8-0.2-1.1-0.3
			c-0.3-0.2-0.6-0.5-0.3-0.9c0.2-0.2,0.2-0.3,0.3-0.5c0.3-0.3,0.6-0.8,0.6-0.8c1.2-0.9,1.6-1.6,2.2-1.4
			C251.8,299.7,252.8,300,252,300.9z"/>
		<path class="st1" d="M247.8,350.6h-2.5V335h2.3c0.3,0,0.5-0.3,0.5-0.6v-2.3c0-0.3-0.2-0.6-0.5-0.6h-9.2c-0.3,0-0.6,0.3-0.6,0.6
			v2.3c0,0.3,0.3,0.6,0.6,0.6h2.2v5.5h-10.5V335h2.2c0.3,0,0.6-0.3,0.6-0.6v-2.3c0-0.3-0.3-0.6-0.6-0.6h-9.1c-0.5,0-0.8,0.3-0.8,0.6
			v2.3c0,0.3,0.3,0.6,0.8,0.6h2.2v15.6h-2.2c-0.5,0-0.8,0.3-0.8,0.6v2.3c0,0.3,0.3,0.6,0.8,0.6h9.4c0.3,0,0.6-0.3,0.6-0.6v-2.3
			c0-0.3-0.3-0.6-0.6-0.6h-2.5v-6.5h10.5v6.5h-2.2c-0.3,0-0.6,0.3-0.6,0.6v2.3c0,0.3,0.3,0.6,0.6,0.6h9.4c0.3,0,0.6-0.3,0.6-0.6
			v-2.3C248.4,350.9,248.1,350.6,247.8,350.6z"/>
		<path class="st1" d="M275.1,350.6h-2.7l-7.6-18.2c-0.2-0.5-0.3-0.9-0.8-0.9h-3.1c-0.5,0-0.6,0.5-0.8,0.9l-8.1,18.2h-1.7
			c-0.5,0-0.6,0.3-0.6,0.6v2.3c0,0.3,0.2,0.6,0.6,0.6h8c0.3,0,0.6-0.3,0.6-0.6v-2.3c0-0.3-0.3-0.6-0.6-0.6h-2l1.6-3.3h9.1l1.4,3.3
			h-2.5c-0.3,0-0.6,0.3-0.6,0.6v2.3c0,0.3,0.3,0.6,0.6,0.6h9.4c0.3,0,0.6-0.3,0.6-0.6v-2.3C275.7,350.9,275.4,350.6,275.1,350.6z
			 M262.3,343.9h-3.1l3.1-7l0.1-0.3l3,7.3H262.3z"/>
		<path class="st1" d="M70.1,308.4c0.9,0.5,4.4,3.4,4.8,4.2c0.5,0.8,1.1,0.6,1.7,0c0.5-0.6-0.1-0.8,0.6-1.6c0.2-0.3,0.5-0.5,0.6-0.6
			c0.6-0.2,1.1,0.2,1.6,0.8c0.8,1.1,2.2,1.9,2.2,3.1c0,1.1-0.6,1.6-1.6,0.8c-1.1-0.8-1.2-1.2-1.7-0.6c-0.2,0.2-0.3,0.5-0.5,0.6
			c-0.3,0.5-0.6,1.1-0.6,1.1s0,0.5,0.6,0.8c0.8,0.5,2.8,1.6,4.5,0.3c0.6-0.3,1.2-0.8,1.6-1.2c0.9-1.1,1.2-2.2,0.6-3.4
			c-0.2-0.3-0.3-0.6-0.6-0.8c-1.1-1.6-3-3-4.1-3.7c-0.8-0.5-1.4-0.6-2-0.5c-0.5,0-0.9,0.3-1.3,0.9c-0.8,0.9-0.9,1.1-0.9,1.1
			l-2.2-1.9c0,0,0.9-1.7,1.7-2c0.9-0.5,0.6-0.6,0-1.4c-0.6-0.6-0.8-1.2-1.6-0.5c-0.6,0.8-3.6,3.1-3.6,3.1S69.2,307.8,70.1,308.4z"/>
		<path class="st1" d="M219.5,347.5h-3c-0.3,0-0.6,0.3-0.6,0.6v2.5h-6.6V335h2.2c0.3,0,0.5-0.3,0.5-0.6v-2.3c0-0.3-0.2-0.6-0.5-0.6
			h-9.2c-0.3,0-0.6,0.3-0.6,0.6v2.3c0,0.3,0.3,0.6,0.6,0.6h2.3v15.6h-2.3c-0.3,0-0.6,0.3-0.6,0.6v2.3c0,0.3,0.3,0.6,0.6,0.6h17.2
			c0.3,0,0.6-0.2,0.6-0.5v-5.6C220.2,347.8,219.9,347.5,219.5,347.5z"/>
		<path class="st1" d="M198.2,331.5h-18.9c-0.3,0-0.6,0.3-0.6,0.6v2.3c0,0.3,0.3,0.6,0.6,0.6h2.2v15.6h-2.2c-0.3,0-0.6,0.3-0.6,0.6
			v2.3c0,0.3,0.3,0.6,0.6,0.6h18.9c0.3,0,0.6-0.3,0.6-0.6V348c0-0.3-0.3-0.6-0.6-0.6h-2.8c-0.5,0-0.6,0.3-0.6,0.6v2.6h-8.4v-6.5h6.6
			c0.3,0,0.6-0.3,0.6-0.6v-2.2c0-0.5-0.3-0.8-0.6-0.8h-6.6V335h8.4v2.6c0,0.3,0.2,0.6,0.6,0.6h2.8c0.3,0,0.6-0.3,0.6-0.6v-5.6
			C198.8,331.8,198.5,331.5,198.2,331.5z"/>
		<path class="st1" d="M144.4,350.6h-2.6l-7.8-18.2c-0.2-0.5-0.3-0.9-0.8-0.9h-3c-0.5,0-0.6,0.5-0.9,0.9l-8.1,18.2h-1.7
			c-0.3,0-0.6,0.3-0.6,0.6v2.3c0,0.3,0.3,0.6,0.6,0.6h8.1c0.3,0,0.5-0.3,0.5-0.6v-2.3c0-0.3-0.2-0.6-0.5-0.6h-2.2l1.6-3.3h9.2
			l1.2,3.3h-2.5c-0.3,0-0.6,0.3-0.6,0.6v2.3c0,0.3,0.3,0.6,0.6,0.6h9.5c0.3,0,0.5-0.3,0.5-0.6v-2.3
			C144.8,350.9,144.7,350.6,144.4,350.6z M131.6,343.9h-3.3l3.3-7v-0.3l3,7.3H131.6z"/>
		<path class="st1" d="M183.3,318.7c0-0.1,0-0.1,0-0.2c0-0.4-0.3-0.6-0.7-0.6c-0.4,0-0.7,0.3-0.7,0.6c0,0.1,0,0.1,0,0.2
			c-0.2,1-1.8,2-4.1,2c-2.3,0-3.9-1-4.1-2c0-0.1,0-0.1,0-0.2c0-0.4-0.3-0.6-0.7-0.6c-0.4,0-0.7,0.3-0.7,0.6c0,0.1,0,0.1,0,0.2
			c-0.2,1-1.8,2-4.1,2c-2.3,0-3.9-1-4.1-2c0-0.1,0-0.1,0-0.2c0-0.4-0.3-0.6-0.7-0.6c-0.4,0-0.7,0.3-0.7,0.6c0,0.1,0,0.1,0,0.2
			c-0.2,1-1.8,2-4.1,2c-2.3,0-3.9-1-4.1-2c0-0.1,0-0.1,0-0.2c0-0.4-0.3-0.6-0.7-0.6c-0.4,0-0.7,0.3-0.7,0.6c0,0.1,0,0.1,0,0.2
			c-0.2,1-1.8,2-4.1,2c-2.3,0-3.9-1-4.1-2v-0.2c0-0.4-0.3-0.6-0.7-0.6c-0.4,0-0.7,0.3-0.7,0.6c0,0.1,0,0.1,0,0.2
			c-0.1,0.3-0.2,0.6-0.5,0.8l0.1,0l3.8,1.4l1.7,0.4l1.9,0.5c1.4-0.3,2.5-0.8,3.2-1.6c0.9,1.1,2.7,1.8,4.7,1.8c2.1,0,3.8-0.7,4.7-1.8
			c0.9,1.1,2.7,1.8,4.7,1.8c2.1,0,3.8-0.7,4.7-1.8c0.9,1.1,2.7,1.8,4.7,1.8c2.1,0,3.8-0.7,4.7-1.8c0.6,0.7,1.5,1.2,2.6,1.5l0,0
			l3.5-1.1c-0.4,0.1-0.9,0.2-1.4,0.2C185,320.7,183.4,319.7,183.3,318.7z"/>
		<polygon class="st1" points="208.1,199.3 208.1,191 200.6,191 200.6,199.3 190.9,199.3 190.9,207 200.6,207 200.6,225.3 
			201.6,225.3 207.2,225.3 208.1,225.3 208.1,207 218.1,207 218.1,199.3 		"/>
		<path class="st1" d="M283,348.6c-0.2-0.3-0.5-0.8-0.9-1.4c-0.9-1.6-2-4.9-2.2-8.7c-0.3-2.7-0.2-5.4,0.9-7.6
			c0.5-1.1,0.9-2.2,1.6-3.2c0.9-1.7,1.6-3.2,1.6-4.1v-0.6c0-0.8-0.5-1.4-1.4-2.1c-1.1-0.8-1.6-0.2-1.6-0.2l-0.3-0.3
			c1.1-2.1,1.7-4,1.9-6.2c0-3.3-1.3-6.7-4.4-10.5c-1.1-1.4-2.2-2.7-3.3-4.1c-2.8-3.5-5.8-7.2-9-10.5v-0.2c0,0-5.5-9.5,0-13.7
			c3.3-2.4,5.5-4.4,6.9-6.2c1.6-2.1,2-3.8,1.7-5.7h-0.2c0.3-0.6,0.8-1.3,0.9-1.9c0.9-1.9,1.2-4.3,0.3-6.8c-0.3-0.8-0.6-1.6-1.2-2.2
			c-1.4-2.4-3-4.1-4.5-5.9c-2.7-3.2-5-5.7-4.5-8.6c1.1-4.8,4.1-7.8,4.1-7.8l1.9-1.9h-2.7c0,0-6.4,0-10.3,4c-0.3,0.5-0.6,0.8-0.9,1.3
			c-1.7,2.5-2.7,4.4-3.3,5.7c-1.7-2.2-5.6-5.9-10.8-7.3l-5.9-1.5c-0.2,0.6-0.3,1-0.3,1v14.4c2.3,1.9,7.2,6.5,7.3,9.5
			c0.3,4.3,0.3,9.2,0.3,9.2h0.3l-5.6,5.7c-4.2,4.4-2.2,11.3-1.2,13.5c-1.9,1.6-6.9,6.7-6.9,12.7c0,6.5,4.8,8.9,10.9,11.8
			c0.9,0.5,2,0.9,3.3,1.6c5.8,3,9.8,13.7,10.8,16.2c-6.1,0.2-12.3,0.2-17.2,0.2h-3.4c-3.7,0-23.8,0.1-49.1,0.3l-48.4,0.2l0,0
			c-19.4,0.1-38,0.3-51.9,0.4c0.8-1.9,2.7-5.4,4.7-6.8c1.9-1.4,6.1-4.8,9.5-8.4c2.5-2.4,4.5-5.1,5.3-7.3c0.5-1,0.8-1.8,1.1-2.5
			c0.5-1.2,1-2.3,1.4-3.3l0,0l0-0.1c0,0,0.8-2.2,0.3-3.9l-4.3-5.4l0,0c-1.1-2.3-2-4.1-2-4.1l-0.8-2.2c-2.9-4.4-6.2-9.6-8.1-14.2
			c-0.2-0.6-0.3-1.3-0.6-1.6v-0.2c-0.8-2.1-1.1-4-0.9-5.6c0.5-4.1,1.1-6.8,1.7-8.6c0.6-1.6,1.4-2.4,2.3-3c1.1-0.5,1.9-1.1,2.5-1.6
			v-14.5l-0.5-0.9c-1.7,0.4-4.4,1.2-6.7,2.9c-2,1.6-3.4,3.3-4.2,4.6c-1.3-1.9-3.7-5.1-6.9-6.2c-0.3-0.2-0.8-0.3-1.1-0.3
			c-4.1-1.1-7.5-0.5-7.6-0.5l-2.2,0.5l1.7,1.6c0,0,5,4.1,3,7.6c-0.6,0.9-0.9,1.7-1.4,2.5c-2,3.7-4.4,7.6-6.2,9.8
			c-1.6,1.9-3.4,5.1-3.4,9.4c-0.2,3,0.6,6.5,3,10.5c2.7,4.6,4.8,8.1,6.9,11c2,2.5,3.9,4.4,6.1,5.9c-0.3,0.3-0.8,0.5-1.2,0.8
			c-3.7,1.9-12.2,7.3-18.1,12.4c-4.2,3.7-7.2,7.3-6.9,9.7c0.1,0.9,0.1,2.1,0.1,3.2c0,2.1,0,4.3,0.6,6.2c-1.1,0.9-3,2.9-3.1,6.3v1.3
			c0,0.6,0.2,1.3,0.3,2.1c0.5,2.2,1.1,3.8,1.6,5.4c0.9,2.7,1.6,4.6,0.5,7.6c-0.2,0.8-0.3,1.4-0.5,2.2c-0.3,2.1,0,4,0.8,5.6
			c0.8,1.7,2.2,2.9,3.9,3.5c0.3,0.2,0.9,0.3,1.4,0.3c0.8,0.2,8.6,0.3,20.9,0.3c41.9,0.2,135.4,0,170.9-0.2h14
			c4.2,0,9.4-0.3,13.4-1.3c3.1-0.6,5.5-1.9,6.1-4C284.3,350.2,284.3,350.2,283,348.6z M237.8,244.8l-0.6-10.4l5.6,1.4
			c6.5,1.7,10.6,7.6,10.6,7.6l1.2,2l0.8-2.2c0,0,0.5-2,2.8-5.6c0.3-0.5,0.6-0.8,0.9-1.2c1.7-2.5,4.7-3.4,6.9-3.9
			c-1.1,1.6-2.3,3.9-3,6.5c-0.8,3.9,1.9,6.9,5,10.3c1.6,1.7,3.1,3.6,4.5,5.5c0.3,0.6,0.6,1.2,0.8,1.9c0.8,1.9,0.6,3.6,0,5
			c-0.8,1.6-1.9,2.8-3.1,3.6c-0.5,0.3-0.9,0.6-1.4,0.8c-1.9,0.6-4.4,0.9-6.7,0.5c-1.4-0.2-2.8-0.6-3.9-1.4c-0.3-0.3-0.6-0.6-0.9-0.9
			c-1.7-1.9-3.6-2.7-5.9-2.2c-1.4,0.3-2.8,1.1-4.5,2.3c0-1.9,0-5.1-0.3-7.9C246.2,252.1,239.5,246.2,237.8,244.8z M245.9,268.2
			c2.3-2.3,4.2-3.7,5.9-4c1.4-0.3,2.7,0.2,3.7,1.4c0.8,0.9,1.7,1.6,2.7,2c1.1,0.6,2.3,0.9,3.6,1.1c2.7,0.5,5.5,0.3,7.8-0.6
			c0.6-0.1,1.2-0.5,1.9-0.9c0.2-0.2,0.5-0.3,0.6-0.5c-0.2,0.6-0.6,1.2-1.1,2c-1.2,1.6-3.3,3.4-6.4,5.6c-4.2,3.1-3.7,8.3-2.5,12
			c-1.2-0.9-2.5-1.9-3.9-2.8c-0.8-0.5-1.6-0.9-2.3-1.4c-4.7-2.6-8.3-5.1-10.1-7.6C244,272.2,243.9,270.2,245.9,268.2z M246.4,307.9
			c-0.9-0.5-2.2-0.9-3.3-1.6c-5.3-2.5-9.5-4.5-9.5-9.5c0-6.2,6.5-11.2,6.5-11.2l0.6-0.5l-0.3-0.9c0,0-3.6-7.5,0.5-11.5l1.2-1.1
			c0.2,1.3,0.8,2.7,1.7,4c2.2,2.8,6.1,5.6,10.9,8.3c1.2,0.6,2.3,1.4,3.4,2.2c6.1,4.2,10.8,10.1,15,15.3c1.1,1.4,2.2,2.8,3.3,4.1
			c2.8,3.3,3.9,6.2,3.7,8.7c0,2.6-1.2,5.1-3.1,7.6c-1.7,2.5-9.8,3.6-18.6,3.9l0,0h-0.3c0.1,0,0.2,0,0.3,0c0,0-0.2-0.3-0.3-0.8
			C257.1,321.9,252.8,311.2,246.4,307.9z M64.8,266c0-3.7,1.6-6.4,3-7.8c2-2.5,4.4-6.4,6.4-10.1c0.5-0.9,1.1-1.9,1.4-2.5
			c1.9-3.3,0-6.5-1.6-8.6c1.2,0,3,0.2,4.8,0.8c0.2,0,0.3,0,0.5,0.2c3.7,1.2,6.4,6.5,6.4,6.5l0.9,1.7l0.9-1.7c0,0,1.7-3,4.8-5.3
			c1.9-1.6,4.2-2.2,5.5-2.5l-0.3,10.5c-0.3,0.3-1.2,1.2-2.9,2.2c-1.4,0.9-2.5,2-3.3,4.1c-0.8,1.9-1.3,4.7-1.9,8.9
			c-0.1,1.1,0,2.3,0.3,3.7c-0.3,0-0.6-0.1-0.9-0.1c-2.2,0-4.5,2.2-7,4.4c-1.1,0.9-2,1.7-3,2.5c-0.5,0.3-0.8,0.6-1.3,0.8
			c-1.4,0.9-3,0.9-4.5,0.5c-1.9-0.5-3.6-1.6-5.3-2.5C64.8,269.6,64.8,266,64.8,266z M74.3,285.5c-2-2.6-4.2-6.1-6.9-10.4
			c-0.3-0.6-0.6-1.2-0.9-1.9c0,0,0.2,0,0.2,0.2c1.9,1.1,3.7,2.2,5.8,2.8c2,0.6,4.2,0.6,6.4-0.6v-0.2c1.4-0.8,3-2.2,4.4-3.4
			c2.2-1.9,4.2-3.7,5.6-3.7c0.3,0,0.6,0,0.9,0.2c0.3,0.2,0.6,0.5,0.9,0.8c0.2,0.3,0.2,0.6,0.3,0.9c0,0.3,0.2,0.8,0.2,1.1
			c0,1.1-0.3,2.2-0.9,3.6c-0.9,2.5-2.8,6.4-5,10.1c-1.4,2.3-3.1,4.7-4.8,6.4c-0.6-0.3-1.1-0.8-1.6-1.1
			C77.1,288.9,75.7,287.3,74.3,285.5z M60.8,307.3c5.8-4.8,13.9-10,17.6-12c0.2,0,0.3-0.2,0.5-0.2c3.1-1.9,5.9-5.3,8.3-9.2
			c2.3-3.7,4.1-7.8,5.1-10.3c0.3-0.6,0.5-1.1,0.6-1.6c3.1,6.1,7.6,12.3,10.3,16c0.8,1.1,1.4,1.9,1.7,2.3c2.3,3.4,1.4,5.5-0.2,8.9
			c-0.3,0.8-0.6,1.7-1.1,2.5c-0.8,2-2.7,4.4-4.8,6.5c-3.3,3.4-7.3,6.7-9.2,7.9c-3,1.9-5.2,7-5.9,8.6h-4.8c-7.8,0-13.1,0.1-15.1,0.1
			c-9.2,0-9-4.8-9-8.9c0-1.2,0-2.3-0.2-3.4C54.4,313.2,57,310.4,60.8,307.3z M281.2,352.9c-0.3,1.1-2,1.9-4.5,2.4
			c-3.6,1-8.7,1.1-12.8,1.1c-0.6,0-2.5,0-5.6,0.2h-8.4c-35.7,0-129.1,0.3-170.9,0.2c-12,0-19.8-0.2-20.6-0.2
			c-0.3-0.2-0.6-0.2-1.1-0.3c-1.1-0.5-2-1.3-2.7-2.4c-0.5-1.3-0.8-2.7-0.5-4.3c0.2-0.6,0.2-1.1,0.5-1.8c1.2-3.8,0.5-6-0.6-9.2
			c-0.5-1.4-1.1-3.2-1.6-5.2c-0.8-3.8,0.8-6.2,1.9-7.1c1.6,1.9,4.4,3.2,9.5,3.2c2,0,7.3,0,15.1-0.2c17.6,0,47.1-0.2,76-0.5
			c38.4-0.2,75.5-0.5,80.8-0.5h3.4c5.3,0,12.5,0,19.2-0.3c9.5-0.5,18.4-1.7,20.7-4.9c0.3-0.5,0.6-0.9,0.9-1.4
			c0.3,0.3,0.8,0.6,1.4,1.1c0.8,0.5,0.3,1.6-0.9,4c-0.5,0.9-0.9,1.9-1.6,3.2c-1.2,2.5-1.4,5.7-1.2,8.9c0.3,4,1.6,7.9,2.6,9.7
			c0.5,0.6,0.8,1.1,1.1,1.6C281.8,350.7,281.8,350.7,281.2,352.9z"/>
		<polygon class="st1" points="186.9,240 191.2,232.9 191.7,233.2 194.7,240 		"/>
	</g>
</g>
<rect class="st2" width="335" height="45"/>
<g>
	<g>
		<g>
			<path class="st3" d="M478.3,129.2c0,13.7-11.2,24.9-25,24.9h-18.4v30.3h-10.6v-80.1h10.6h18.4
				C467.1,104.4,478.3,115.5,478.3,129.2z M467.6,129.2c0-8.2-6.4-14.9-14.4-14.9h-18.4v29.9h18.4
				C461.2,144.2,467.6,137.4,467.6,129.2z"/>
			<path class="st3" d="M516.6,153.8h-15.1v30.7h-10.6v-80.1h10.6H520c13.7,0,24.9,11.1,24.9,24.8c0,10.6-7,19.9-16.7,23.2l27.6,32
				h-12.9L516.6,153.8z M501.5,144.2H520c7.9,0,14.3-6.7,14.3-15s-6.4-14.9-14.3-14.9h-18.5V144.2z"/>
			<path class="st3" d="M609.2,174.4v10.1h-42.3h-4v-80.1h10.6h35.1v10.1h-35.1V139h32.3v10h-32.3v25.4H609.2z"/>
			<path class="st3" d="M632.8,114.4v28h33.7v10.1h-33.7v31.9h-10.6v-80.1h10.6h35.1v10.1H632.8z"/>
			<path class="st3" d="M725.5,174.4v10.1h-42.3h-4v-80.1h10.6h35.1v10.1h-35.1V139H722v10h-32.3v25.4H725.5z"/>
			<path class="st3" d="M749,104.4v80.1h-10.6v-80.1H749z"/>
			<path class="st3" d="M812.8,114.4h-21.4v70h-10.5v-70h-21.3v-10.1h31.8h21.4V114.4z"/>
			<path class="st3" d="M822.2,160.4v-56h10.6v55.6c0,10.2,6.6,15.6,17.4,15.6c10.9,0,17.5-5.4,17.5-15.6v-55.6h10.5v56
				c0,16.6-12.5,25.5-28,25.5S822.2,177,822.2,160.4z"/>
			<path class="st3" d="M920,153.8h-15.1v30.7h-10.6v-80.1h10.6h18.5c13.7,0,24.9,11.1,24.9,24.8c0,10.6-7,19.9-16.7,23.2l27.6,32
				h-12.9L920,153.8z M904.9,144.2h18.5c7.9,0,14.3-6.7,14.3-15s-6.4-14.9-14.3-14.9h-18.5V144.2z"/>
			<path class="st3" d="M1012.1,166.5h-35.7l-6.4,18h-11.3l29.5-80.1h12l29.6,80.1h-11.3L1012.1,166.5z M1008.4,156.5l-14.2-39.7
				L980,156.5H1008.4z"/>
			<path class="st3" d="M1139.4,144.4c0,22.2-15.9,40-38,40h-29.5h-4v-80.1h10.6h22.9C1123.5,104.4,1139.4,122.2,1139.4,144.4z
				 M1129.2,144.4c0-16.9-11.3-30-27.8-30h-22.9v59.9h22.9C1117.9,174.4,1129.2,161.3,1129.2,144.4z"/>
			<path class="st3" d="M1198.7,174.4v10.1h-42.3h-4v-80.1h10.6h35.1v10.1H1163V139h32.3v10H1163v25.4H1198.7z"/>
		</g>
	</g>
	<g>
		<path class="st3" d="M415.3,215.8h29.4l19.8,74.5l19.8-74.5h29.4l-33,106h-32.4L415.3,215.8z"/>
		<path class="st3" d="M548.4,215.8v106h-27.1v-106H548.4z"/>
		<path class="st3" d="M621.1,295.6v26.2h-57.9H559v-106h27.1v79.8H621.1z"/>
		<path class="st3" d="M694.8,306.5h-33.9l-4.4,15.3h-29.4l34.5-106h32.4l34.5,106h-29.4L694.8,306.5z M688.3,283.2l-10.4-36.6
			l-10.5,36.6H688.3z"/>
		<path class="st3" d="M761.5,215.8h29.4l19.8,74.5l19.8-74.5h29.4l-33,106h-32.4L761.5,215.8z"/>
		<path class="st3" d="M932.6,296.4v25.4h-56.8h-8.3v-106h27.1h37.3v25.4h-37.3v15h33.5v24.1h-33.5v16.1H932.6z"/>
		<path class="st3" d="M1007.1,295.6v26.2h-57.9H945v-106h27.1v79.8H1007.1z"/>
		<path class="st3" d="M1097.1,215.8v106h-27v-41.5h-26.8v41.5h-27.1v-106h27.1v38.5h26.8v-38.5H1097.1z"/>
		<path class="st3" d="M1172.5,306.5h-33.9l-4.4,15.3h-29.4l34.5-106h32.4l34.5,106h-29.4L1172.5,306.5z M1166,283.2l-10.4-36.6
			l-10.5,36.6H1166z"/>
	</g>
</g>
</svg>
