<svg xmlns="http://www.w3.org/2000/svg" xmlns:xlink="http://www.w3.org/1999/xlink" width="1366" zoomAndPan="magnify" viewBox="0 0 1024.5 576" height="768" preserveAspectRatio="xMidYMid meet" version="1.0"><defs><filter x="0%" y="0%" width="100%" height="100%" id="8bfc07991a"><feColorMatrix values="0 0 0 0 1 0 0 0 0 1 0 0 0 0 1 0 0 0 1 0" color-interpolation-filters="sRGB"/></filter><clipPath id="c9ac552afc"><path d="M 0 383 L 150 383 L 150 575.859375 L 0 575.859375 Z M 0 383 " clip-rule="nonzero"/></clipPath><mask id="c571a6aa4c"><g filter="url(#8bfc07991a)"><rect x="-102.45" width="1229.4" fill="#000000" y="-57.6" height="691.2" fill-opacity="0.06"/></g></mask><clipPath id="88d195ad19"><path d="M 41 0.796875 L 148.914062 0.796875 L 148.914062 109 L 41 109 Z M 41 0.796875 " clip-rule="nonzero"/></clipPath><clipPath id="d9f126f64e"><path d="M 0 141 L 59 141 L 59 192.859375 L 0 192.859375 Z M 0 141 " clip-rule="nonzero"/></clipPath><clipPath id="1972764824"><path d="M 96 120 L 143 120 L 143 192.859375 L 96 192.859375 Z M 96 120 " clip-rule="nonzero"/></clipPath><clipPath id="9e726710a8"><rect x="0" width="150" y="0" height="193"/></clipPath><clipPath id="269d1ee341"><path d="M 865 0.140625 L 1024 0.140625 L 1024 184 L 865 184 Z M 865 0.140625 " clip-rule="nonzero"/></clipPath><mask id="10ec15ebf2"><g filter="url(#8bfc07991a)"><rect x="-102.45" width="1229.4" fill="#000000" y="-57.6" height="691.2" fill-opacity="0.06"/></g></mask><clipPath id="a1ad67b203"><path d="M 60 39 L 159 39 L 159 147 L 60 147 Z M 60 39 " clip-rule="nonzero"/></clipPath><clipPath id="b5864b95fd"><path d="M 124 75 L 159 75 L 159 183.046875 L 124 183.046875 Z M 124 75 " clip-rule="nonzero"/></clipPath><clipPath id="469b1f99c5"><path d="M 1.765625 3 L 92 3 L 92 93 L 1.765625 93 Z M 1.765625 3 " clip-rule="nonzero"/></clipPath><clipPath id="a692802712"><path d="M 125 0.140625 L 148 0.140625 L 148 22 L 125 22 Z M 125 0.140625 " clip-rule="nonzero"/></clipPath><clipPath id="ec062d2340"><rect x="0" width="159" y="0" height="184"/></clipPath></defs><g clip-path="url(#c9ac552afc)"><g mask="url(#c571a6aa4c)"><g transform="matrix(1, 0, 0, 1, 0, 383)"><g clip-path="url(#9e726710a8)"><path fill="#ffd305" d="M 31.472656 65.125 L 86.105469 65.125 C 93.363281 65.125 99.957031 68.089844 104.730469 72.871094 C 109.511719 77.648438 112.476562 84.242188 112.476562 91.5 L 112.476562 146.152344 C 112.476562 153.410156 109.511719 160.003906 104.730469 164.78125 C 99.957031 169.5625 93.363281 172.527344 86.105469 172.527344 L 31.472656 172.527344 C 24.214844 172.527344 17.625 169.5625 12.847656 164.78125 C 8.070312 160.003906 5.101562 153.410156 5.101562 146.152344 L 5.101562 91.5 C 5.101562 84.242188 8.066406 77.648438 12.847656 72.871094 C 17.625 68.089844 24.214844 65.125 31.472656 65.125 Z M 86.105469 74.613281 L 31.472656 74.613281 C 26.835938 74.613281 22.613281 76.515625 19.554688 79.578125 C 16.488281 82.640625 14.589844 86.863281 14.589844 91.5 L 14.589844 146.152344 C 14.589844 150.792969 16.488281 155.011719 19.554688 158.074219 C 22.617188 161.140625 26.835938 163.039062 31.472656 163.039062 L 86.105469 163.039062 C 90.746094 163.039062 94.964844 161.140625 98.027344 158.074219 C 101.089844 155.011719 102.988281 150.792969 102.988281 146.152344 L 102.988281 91.5 C 102.988281 86.863281 101.089844 82.640625 98.027344 79.578125 C 94.964844 76.515625 90.742188 74.613281 86.105469 74.613281 Z M 86.105469 74.613281 " fill-opacity="1" fill-rule="nonzero"/><g clip-path="url(#88d195ad19)"><path fill="#01dc51" d="M 67.894531 0.796875 L 122.527344 0.796875 C 129.785156 0.796875 136.378906 3.765625 141.15625 8.542969 C 145.933594 13.320312 148.898438 19.914062 148.898438 27.175781 L 148.898438 81.824219 C 148.898438 89.082031 145.933594 95.675781 141.15625 100.453125 C 136.378906 105.234375 129.785156 108.199219 122.527344 108.199219 L 67.894531 108.199219 C 60.636719 108.199219 54.046875 105.234375 49.269531 100.453125 C 44.492188 95.675781 41.527344 89.082031 41.527344 81.824219 L 41.527344 27.175781 C 41.527344 19.914062 44.492188 13.320312 49.269531 8.542969 C 54.046875 3.765625 60.640625 0.796875 67.894531 0.796875 Z M 122.527344 10.285156 L 67.894531 10.285156 C 63.257812 10.285156 59.035156 12.1875 55.976562 15.25 C 52.914062 18.316406 51.011719 22.535156 51.011719 27.175781 L 51.011719 81.824219 C 51.011719 86.460938 52.914062 90.683594 55.976562 93.746094 C 59.039062 96.808594 63.257812 98.710938 67.894531 98.710938 L 122.527344 98.710938 C 127.167969 98.710938 131.386719 96.808594 134.449219 93.746094 C 137.511719 90.683594 139.414062 86.460938 139.414062 81.824219 L 139.414062 27.175781 C 139.414062 22.535156 137.511719 18.3125 134.449219 15.25 C 131.386719 12.1875 127.164062 10.285156 122.527344 10.285156 Z M 122.527344 10.285156 " fill-opacity="1" fill-rule="nonzero"/></g><g clip-path="url(#d9f126f64e)"><path fill="#e3104e" d="M -8.597656 141.636719 L 36.824219 141.636719 C 42.859375 141.636719 48.339844 144.101562 52.3125 148.074219 C 56.285156 152.046875 58.75 157.53125 58.75 163.566406 L 58.75 209 C 58.75 215.035156 56.285156 220.519531 52.3125 224.492188 C 48.339844 228.464844 42.859375 230.929688 36.824219 230.929688 L -8.597656 230.929688 C -14.628906 230.929688 -20.109375 228.46875 -24.082031 224.492188 C -28.054688 220.519531 -30.519531 215.039062 -30.519531 209 L -30.519531 163.566406 C -30.519531 157.53125 -28.054688 152.050781 -24.082031 148.074219 C -20.113281 144.101562 -14.628906 141.636719 -8.597656 141.636719 Z M 36.824219 149.523438 L -8.597656 149.523438 C -12.453125 149.523438 -15.960938 151.105469 -18.507812 153.652344 C -21.054688 156.199219 -22.632812 159.707031 -22.632812 163.566406 L -22.632812 209 C -22.632812 212.859375 -21.054688 216.367188 -18.507812 218.914062 C -15.960938 221.460938 -12.453125 223.042969 -8.597656 223.042969 L 36.824219 223.042969 C 40.683594 223.042969 44.191406 221.460938 46.738281 218.914062 C 49.28125 216.371094 50.863281 212.859375 50.863281 209 L 50.863281 163.566406 C 50.863281 159.710938 49.28125 156.199219 46.738281 153.652344 C 44.191406 151.105469 40.683594 149.523438 36.824219 149.523438 Z M 36.824219 149.523438 " fill-opacity="1" fill-rule="nonzero"/></g><g clip-path="url(#1972764824)"><path fill="#aa32a5" d="M 107.363281 173.996094 L 130.867188 173.996094 C 133.988281 173.996094 136.828125 175.273438 138.882812 177.328125 C 140.9375 179.382812 142.214844 182.222656 142.214844 185.34375 L 142.214844 208.855469 C 142.214844 211.976562 140.9375 214.816406 138.882812 216.871094 C 136.828125 218.925781 133.988281 220.203125 130.867188 220.203125 L 107.363281 220.203125 C 104.238281 220.203125 101.402344 218.925781 99.347656 216.871094 C 97.292969 214.816406 96.015625 211.976562 96.015625 208.855469 L 96.015625 185.34375 C 96.015625 182.222656 97.292969 179.382812 99.347656 177.328125 C 101.402344 175.273438 104.238281 173.996094 107.363281 173.996094 Z M 125.601562 120.25 L 137.671875 120.25 C 140.296875 120.25 142.449219 122.398438 142.449219 125.027344 L 142.449219 137.101562 C 142.449219 139.730469 140.296875 141.878906 137.671875 141.878906 L 125.601562 141.878906 C 122.972656 141.878906 120.824219 139.730469 120.824219 137.101562 L 120.824219 125.027344 C 120.824219 122.398438 122.972656 120.25 125.601562 120.25 Z M 130.867188 178.078125 L 107.363281 178.078125 C 105.367188 178.078125 103.550781 178.894531 102.234375 180.214844 C 100.917969 181.53125 100.097656 183.347656 100.097656 185.34375 L 100.097656 208.855469 C 100.097656 210.851562 100.917969 212.667969 102.234375 213.984375 C 103.550781 215.300781 105.367188 216.121094 107.363281 216.121094 L 130.867188 216.121094 C 132.863281 216.121094 134.679688 215.300781 135.996094 213.984375 C 137.3125 212.667969 138.132812 210.851562 138.132812 208.855469 L 138.132812 185.34375 C 138.132812 183.347656 137.3125 181.53125 135.996094 180.214844 C 134.675781 178.894531 132.863281 178.078125 130.867188 178.078125 Z M 130.867188 178.078125 " fill-opacity="1" fill-rule="nonzero"/></g><path fill="#e3104e" d="M 4.75 14.082031 L 14.148438 14.082031 C 14.644531 14.082031 15.117188 14.175781 15.574219 14.363281 C 16.03125 14.554688 16.433594 14.824219 16.78125 15.171875 C 17.132812 15.519531 17.402344 15.925781 17.589844 16.378906 C 17.777344 16.835938 17.875 17.3125 17.875 17.804688 L 17.875 27.210938 C 17.875 27.703125 17.777344 28.179688 17.589844 28.636719 C 17.402344 29.089844 17.132812 29.492188 16.78125 29.84375 C 16.433594 30.191406 16.03125 30.460938 15.574219 30.652344 C 15.117188 30.839844 14.644531 30.933594 14.148438 30.933594 L 4.75 30.933594 C 4.253906 30.933594 3.78125 30.839844 3.324219 30.652344 C 2.867188 30.460938 2.464844 30.191406 2.117188 29.84375 C 1.765625 29.492188 1.496094 29.089844 1.308594 28.636719 C 1.121094 28.179688 1.023438 27.703125 1.023438 27.210938 L 1.023438 17.804688 C 1.023438 17.3125 1.121094 16.835938 1.308594 16.378906 C 1.496094 15.925781 1.765625 15.519531 2.117188 15.171875 C 2.464844 14.824219 2.867188 14.554688 3.324219 14.363281 C 3.78125 14.175781 4.253906 14.082031 4.75 14.082031 Z M 4.75 14.082031 " fill-opacity="1" fill-rule="evenodd"/></g></g></g></g><g clip-path="url(#269d1ee341)"><g mask="url(#10ec15ebf2)"><g transform="matrix(1, 0, 0, 1, 865, 0.000000000000055289)"><g clip-path="url(#ec062d2340)"><g clip-path="url(#a1ad67b203)"><path fill="#ffd305" d="M 167.574219 65.609375 L 167.574219 120.242188 C 167.574219 127.5 164.609375 134.089844 159.832031 138.867188 C 155.050781 143.644531 148.457031 146.609375 141.199219 146.609375 L 86.546875 146.609375 C 79.289062 146.609375 72.695312 143.644531 67.917969 138.867188 C 63.136719 134.089844 60.171875 127.496094 60.171875 120.242188 L 60.171875 65.609375 C 60.171875 58.351562 63.136719 51.757812 67.917969 46.980469 C 72.695312 42.203125 79.289062 39.238281 86.546875 39.238281 L 141.199219 39.238281 C 148.457031 39.238281 155.050781 42.203125 159.832031 46.980469 C 164.609375 51.757812 167.574219 58.351562 167.574219 65.609375 Z M 158.085938 120.242188 L 158.085938 65.609375 C 158.085938 60.96875 156.1875 56.75 153.121094 53.6875 C 150.058594 50.625 145.839844 48.726562 141.199219 48.726562 L 86.546875 48.726562 C 81.910156 48.726562 77.6875 50.625 74.625 53.6875 C 71.5625 56.75 69.660156 60.972656 69.660156 65.609375 L 69.660156 120.242188 C 69.660156 124.878906 71.5625 129.101562 74.625 132.160156 C 77.6875 135.222656 81.910156 137.125 86.546875 137.125 L 141.199219 137.125 C 145.839844 137.125 150.058594 135.222656 153.121094 132.160156 C 156.1875 129.097656 158.085938 124.878906 158.085938 120.242188 Z M 158.085938 120.242188 " fill-opacity="1" fill-rule="nonzero"/></g><g clip-path="url(#b5864b95fd)"><path fill="#01dc51" d="M 231.902344 102.03125 L 231.902344 156.664062 C 231.902344 163.921875 228.9375 170.511719 224.160156 175.292969 C 219.378906 180.066406 212.785156 183.03125 205.527344 183.03125 L 150.878906 183.03125 C 143.621094 183.03125 137.023438 180.066406 132.246094 175.292969 C 127.46875 170.511719 124.5 163.921875 124.5 156.664062 L 124.5 102.03125 C 124.5 94.773438 127.46875 88.179688 132.246094 83.40625 C 137.023438 78.628906 143.621094 75.660156 150.878906 75.660156 L 205.527344 75.660156 C 212.785156 75.660156 219.378906 78.628906 224.160156 83.40625 C 228.9375 88.179688 231.902344 94.773438 231.902344 102.03125 Z M 222.414062 156.664062 L 222.414062 102.03125 C 222.414062 97.390625 220.511719 93.171875 217.449219 90.109375 C 214.386719 87.050781 210.164062 85.148438 205.527344 85.148438 L 150.878906 85.148438 C 146.238281 85.148438 142.015625 87.050781 138.953125 90.109375 C 135.890625 93.171875 133.988281 97.394531 133.988281 102.03125 L 133.988281 156.664062 C 133.988281 161.300781 135.890625 165.523438 138.953125 168.582031 C 142.015625 171.648438 146.238281 173.546875 150.878906 173.546875 L 205.527344 173.546875 C 210.164062 173.546875 214.386719 171.648438 217.449219 168.582031 C 220.511719 165.519531 222.414062 161.300781 222.414062 156.664062 Z M 222.414062 156.664062 " fill-opacity="1" fill-rule="nonzero"/></g><g clip-path="url(#469b1f99c5)"><path fill="#e3104e" d="M 91.0625 25.539062 L 91.0625 70.960938 C 91.0625 76.992188 88.597656 82.476562 84.625 86.449219 C 80.652344 90.417969 75.167969 92.886719 69.132812 92.886719 L 23.699219 92.886719 C 17.664062 92.886719 12.179688 90.417969 8.207031 86.449219 C 4.234375 82.476562 1.769531 76.996094 1.769531 70.960938 L 1.769531 25.539062 C 1.769531 19.507812 4.234375 14.027344 8.207031 10.050781 C 12.179688 6.082031 17.664062 3.617188 23.699219 3.617188 L 69.132812 3.617188 C 75.167969 3.617188 80.652344 6.082031 84.625 10.050781 C 88.597656 14.023438 91.0625 19.503906 91.0625 25.539062 Z M 83.175781 70.960938 L 83.175781 25.539062 C 83.175781 21.683594 81.59375 18.175781 79.046875 15.628906 C 76.5 13.082031 72.992188 11.503906 69.132812 11.503906 L 23.699219 11.503906 C 19.84375 11.503906 16.332031 13.082031 13.785156 15.628906 C 11.238281 18.171875 9.65625 21.683594 9.65625 25.539062 L 9.65625 70.960938 C 9.65625 74.820312 11.238281 78.324219 13.785156 80.871094 C 16.332031 83.417969 19.839844 85 23.699219 85 L 69.132812 85 C 72.992188 85 76.5 83.417969 79.046875 80.871094 C 81.59375 78.328125 83.175781 74.820312 83.175781 70.960938 Z M 83.175781 70.960938 " fill-opacity="1" fill-rule="nonzero"/></g><path fill="#aa32a5" d="M 58.703125 141.496094 L 58.703125 165.003906 C 58.703125 168.125 57.429688 170.960938 55.371094 173.019531 C 53.316406 175.074219 50.480469 176.347656 47.355469 176.347656 L 23.84375 176.347656 C 20.722656 176.347656 17.882812 175.074219 15.828125 173.019531 C 13.773438 170.960938 12.496094 168.125 12.496094 165.003906 L 12.496094 141.496094 C 12.496094 138.375 13.773438 135.539062 15.828125 133.484375 C 17.886719 131.425781 20.722656 130.152344 23.84375 130.152344 L 47.355469 130.152344 C 50.480469 130.152344 53.316406 131.425781 55.371094 133.484375 C 57.429688 135.539062 58.703125 138.375 58.703125 141.496094 Z M 112.453125 159.734375 L 112.453125 171.804688 C 112.453125 174.433594 110.300781 176.582031 107.671875 176.582031 L 95.597656 176.582031 C 92.96875 176.582031 90.820312 174.433594 90.820312 171.804688 L 90.820312 159.734375 C 90.820312 157.105469 92.96875 154.957031 95.597656 154.957031 L 107.671875 154.957031 C 110.300781 154.957031 112.453125 157.105469 112.453125 159.734375 Z M 54.621094 165.003906 L 54.621094 141.496094 C 54.621094 139.5 53.804688 137.6875 52.488281 136.371094 C 51.167969 135.050781 49.351562 134.234375 47.355469 134.234375 L 23.84375 134.234375 C 21.851562 134.234375 20.03125 135.050781 18.714844 136.371094 C 17.398438 137.6875 16.578125 139.503906 16.578125 141.496094 L 16.578125 165.003906 C 16.578125 167 17.398438 168.8125 18.714844 170.132812 C 20.03125 171.449219 21.851562 172.265625 23.84375 172.265625 L 47.355469 172.265625 C 49.351562 172.265625 51.167969 171.449219 52.488281 170.132812 C 53.804688 168.8125 54.621094 166.996094 54.621094 165.003906 Z M 54.621094 165.003906 " fill-opacity="1" fill-rule="nonzero"/><g clip-path="url(#a692802712)"><path fill="#11a0e0" d="M 147.175781 4.9375 L 147.175781 17.007812 C 147.175781 17.320312 147.144531 17.632812 147.085938 17.941406 C 147.023438 18.25 146.933594 18.546875 146.8125 18.835938 C 146.691406 19.125 146.546875 19.402344 146.371094 19.664062 C 146.195312 19.921875 146 20.164062 145.777344 20.386719 C 145.554688 20.609375 145.3125 20.808594 145.050781 20.980469 C 144.792969 21.15625 144.515625 21.300781 144.226562 21.421875 C 143.9375 21.542969 143.636719 21.632812 143.328125 21.695312 C 143.023438 21.753906 142.710938 21.785156 142.398438 21.785156 L 130.324219 21.785156 C 130.011719 21.785156 129.699219 21.753906 129.390625 21.695312 C 129.082031 21.632812 128.785156 21.542969 128.496094 21.421875 C 128.207031 21.300781 127.929688 21.15625 127.667969 20.980469 C 127.40625 20.808594 127.167969 20.609375 126.945312 20.386719 C 126.722656 20.164062 126.523438 19.921875 126.351562 19.664062 C 126.175781 19.402344 126.027344 19.125 125.910156 18.835938 C 125.789062 18.546875 125.699219 18.25 125.636719 17.941406 C 125.574219 17.632812 125.546875 17.320312 125.546875 17.007812 L 125.546875 4.9375 C 125.546875 4.625 125.574219 4.3125 125.636719 4.007812 C 125.699219 3.699219 125.789062 3.398438 125.910156 3.109375 C 126.027344 2.820312 126.175781 2.542969 126.351562 2.285156 C 126.523438 2.023438 126.722656 1.78125 126.945312 1.558594 C 127.167969 1.339844 127.40625 1.140625 127.667969 0.964844 C 127.929688 0.792969 128.207031 0.644531 128.496094 0.523438 C 128.785156 0.40625 129.082031 0.3125 129.390625 0.253906 C 129.699219 0.191406 130.011719 0.160156 130.324219 0.160156 L 142.398438 0.160156 C 142.710938 0.160156 143.023438 0.191406 143.328125 0.253906 C 143.636719 0.3125 143.9375 0.40625 144.226562 0.523438 C 144.515625 0.644531 144.792969 0.792969 145.050781 0.964844 C 145.3125 1.140625 145.554688 1.339844 145.777344 1.558594 C 146 1.78125 146.195312 2.023438 146.371094 2.285156 C 146.546875 2.542969 146.691406 2.820312 146.8125 3.109375 C 146.933594 3.398438 147.023438 3.699219 147.085938 4.007812 C 147.144531 4.3125 147.175781 4.625 147.175781 4.9375 Z M 147.175781 4.9375 " fill-opacity="1" fill-rule="evenodd"/></g></g></g></g></g></svg>
