<svg xmlns="http://www.w3.org/2000/svg" xmlns:xlink="http://www.w3.org/1999/xlink" width="402" zoomAndPan="magnify" viewBox="0 0 301.5 231" height="308" preserveAspectRatio="xMidYMid meet" version="1.0"><defs><clipPath id="132ddb0b1e"><path d="M 75 0.191406 L 182.695312 0.191406 L 182.695312 108 L 75 108 Z M 75 0.191406 " clip-rule="nonzero"/></clipPath><clipPath id="a98877c7ae"><path d="M 3 140 L 93 140 L 93 230.058594 L 3 230.058594 Z M 3 140 " clip-rule="nonzero"/></clipPath><clipPath id="bcf1ed101b"><path d="M 191.683594 0.191406 L 301 0.191406 L 301 108.011719 L 191.683594 108.011719 Z M 191.683594 0.191406 " clip-rule="nonzero"/></clipPath><clipPath id="14607d43e8"><path d="M 217.886719 0.191406 L 274.480469 0.191406 C 288.953125 0.191406 300.683594 11.925781 300.683594 26.398438 L 300.683594 81.804688 C 300.683594 96.277344 288.953125 108.011719 274.480469 108.011719 L 217.886719 108.011719 C 203.414062 108.011719 191.683594 96.277344 191.683594 81.804688 L 191.683594 26.398438 C 191.683594 11.925781 203.414062 0.191406 217.886719 0.191406 Z M 217.886719 0.191406 " clip-rule="nonzero"/></clipPath></defs><path fill="#ffd305" d="M 65.394531 64.441406 L 119.964844 64.441406 C 127.210938 64.441406 133.796875 67.40625 138.566406 72.179688 C 143.339844 76.953125 146.300781 83.539062 146.300781 90.789062 L 146.300781 145.375 C 146.300781 152.625 143.339844 159.210938 138.566406 163.984375 C 133.796875 168.757812 127.210938 171.71875 119.964844 171.71875 L 65.394531 171.71875 C 58.144531 171.71875 51.5625 168.757812 46.789062 163.984375 C 42.019531 159.210938 39.054688 152.625 39.054688 145.375 L 39.054688 90.789062 C 39.054688 83.539062 42.015625 76.953125 46.789062 72.179688 C 51.5625 67.40625 58.144531 64.441406 65.394531 64.441406 Z M 119.964844 73.917969 L 65.394531 73.917969 C 60.761719 73.917969 56.546875 75.820312 53.488281 78.878906 C 50.429688 81.941406 48.53125 86.15625 48.53125 90.789062 L 48.53125 145.375 C 48.53125 150.007812 50.429688 154.226562 53.488281 157.285156 C 56.546875 160.34375 60.761719 162.242188 65.394531 162.242188 L 119.964844 162.242188 C 124.597656 162.242188 128.8125 160.34375 131.871094 157.285156 C 134.929688 154.226562 136.828125 150.007812 136.828125 145.375 L 136.828125 90.789062 C 136.828125 86.15625 134.929688 81.9375 131.871094 78.878906 C 128.808594 75.820312 124.59375 73.917969 119.964844 73.917969 Z M 119.964844 73.917969 " fill-opacity="1" fill-rule="nonzero"/><g clip-path="url(#132ddb0b1e)"><path fill="#01dc51" d="M 101.773438 0.191406 L 156.34375 0.191406 C 163.589844 0.191406 170.175781 3.152344 174.949219 7.925781 C 179.71875 12.699219 182.679688 19.285156 182.679688 26.535156 L 182.679688 81.121094 C 182.679688 88.371094 179.71875 94.960938 174.949219 99.730469 C 170.175781 104.503906 163.589844 107.46875 156.34375 107.46875 L 101.773438 107.46875 C 94.523438 107.46875 87.941406 104.503906 83.167969 99.730469 C 78.398438 94.960938 75.4375 88.371094 75.4375 81.121094 L 75.4375 26.535156 C 75.4375 19.285156 78.398438 12.699219 83.167969 7.925781 C 87.941406 3.152344 94.527344 0.191406 101.773438 0.191406 Z M 156.34375 9.667969 L 101.773438 9.667969 C 97.140625 9.667969 92.925781 11.566406 89.867188 14.628906 C 86.808594 17.6875 84.910156 21.902344 84.910156 26.535156 L 84.910156 81.121094 C 84.910156 85.757812 86.808594 89.972656 89.867188 93.03125 C 92.925781 96.089844 97.140625 97.992188 101.773438 97.992188 L 156.34375 97.992188 C 160.976562 97.992188 165.191406 96.089844 168.25 93.03125 C 171.308594 89.972656 173.207031 85.757812 173.207031 81.121094 L 173.207031 26.535156 C 173.207031 21.902344 171.308594 17.6875 168.25 14.628906 C 165.191406 11.566406 160.976562 9.667969 156.34375 9.667969 Z M 156.34375 9.667969 " fill-opacity="1" fill-rule="nonzero"/></g><g clip-path="url(#a98877c7ae)"><path fill="#e3104e" d="M 25.371094 140.867188 L 70.742188 140.867188 C 76.765625 140.867188 82.242188 143.328125 86.210938 147.296875 C 90.175781 151.265625 92.640625 156.742188 92.640625 162.769531 L 92.640625 208.152344 C 92.640625 214.179688 90.175781 219.65625 86.210938 223.625 C 82.242188 227.59375 76.769531 230.054688 70.742188 230.054688 L 25.371094 230.054688 C 19.347656 230.054688 13.871094 227.59375 9.902344 223.625 C 5.9375 219.65625 3.472656 214.179688 3.472656 208.152344 L 3.472656 162.769531 C 3.472656 156.742188 5.9375 151.265625 9.902344 147.296875 C 13.871094 143.328125 19.34375 140.867188 25.371094 140.867188 Z M 70.742188 148.746094 L 25.371094 148.746094 C 21.519531 148.746094 18.015625 150.324219 15.472656 152.867188 C 12.929688 155.410156 11.351562 158.917969 11.351562 162.769531 L 11.351562 208.152344 C 11.351562 212.003906 12.929688 215.507812 15.472656 218.054688 C 18.015625 220.597656 21.519531 222.175781 25.371094 222.175781 L 70.742188 222.175781 C 74.59375 222.175781 78.097656 220.597656 80.640625 218.054688 C 83.183594 215.511719 84.761719 212.003906 84.761719 208.152344 L 84.761719 162.769531 C 84.761719 158.917969 83.183594 155.410156 80.640625 152.867188 C 78.097656 150.324219 74.59375 148.746094 70.742188 148.746094 Z M 70.742188 148.746094 " fill-opacity="1" fill-rule="nonzero"/></g><path fill="#aa32a5" d="M 141.195312 173.1875 L 164.671875 173.1875 C 167.792969 173.1875 170.625 174.460938 172.679688 176.515625 C 174.730469 178.566406 176.003906 181.402344 176.003906 184.519531 L 176.003906 208.003906 C 176.003906 211.125 174.730469 213.960938 172.679688 216.011719 C 170.625 218.066406 167.792969 219.339844 164.671875 219.339844 L 141.195312 219.339844 C 138.074219 219.339844 135.242188 218.066406 133.1875 216.011719 C 131.136719 213.957031 129.863281 211.125 129.863281 208.003906 L 129.863281 184.519531 C 129.863281 181.402344 131.136719 178.566406 133.1875 176.515625 C 135.242188 174.460938 138.074219 173.1875 141.195312 173.1875 Z M 159.410156 119.5 L 171.46875 119.5 C 174.09375 119.5 176.238281 121.648438 176.238281 124.273438 L 176.238281 136.335938 C 176.238281 138.960938 174.09375 141.109375 171.46875 141.109375 L 159.410156 141.109375 C 156.785156 141.109375 154.640625 138.960938 154.640625 136.335938 L 154.640625 124.273438 C 154.640625 121.648438 156.785156 119.5 159.410156 119.5 Z M 164.671875 177.261719 L 141.195312 177.261719 C 139.199219 177.261719 137.386719 178.082031 136.074219 179.398438 C 134.757812 180.710938 133.9375 182.527344 133.9375 184.519531 L 133.9375 208.003906 C 133.9375 210 134.757812 211.8125 136.074219 213.128906 C 137.390625 214.445312 139.203125 215.261719 141.195312 215.261719 L 164.671875 215.261719 C 166.667969 215.261719 168.480469 214.445312 169.792969 213.128906 C 171.109375 211.8125 171.929688 210 171.929688 208.003906 L 171.929688 184.519531 C 171.929688 182.527344 171.109375 180.710938 169.792969 179.398438 C 168.476562 178.082031 166.664062 177.261719 164.671875 177.261719 Z M 164.671875 177.261719 " fill-opacity="1" fill-rule="nonzero"/><path fill="#11a0e0" d="M 4.792969 84.816406 L 16.851562 84.816406 C 17.164062 84.816406 17.476562 84.847656 17.78125 84.910156 C 18.089844 84.972656 18.386719 85.0625 18.675781 85.179688 C 18.964844 85.300781 19.242188 85.449219 19.503906 85.621094 C 19.761719 85.796875 20.003906 85.996094 20.226562 86.214844 C 20.445312 86.4375 20.644531 86.679688 20.820312 86.9375 C 20.992188 87.199219 21.140625 87.476562 21.261719 87.765625 C 21.378906 88.054688 21.46875 88.351562 21.53125 88.660156 C 21.59375 88.96875 21.621094 89.277344 21.621094 89.589844 L 21.621094 101.652344 C 21.621094 101.964844 21.59375 102.273438 21.53125 102.582031 C 21.46875 102.890625 21.378906 103.1875 21.261719 103.476562 C 21.140625 103.765625 20.992188 104.042969 20.820312 104.304688 C 20.644531 104.5625 20.445312 104.804688 20.226562 105.027344 C 20.003906 105.246094 19.761719 105.445312 19.503906 105.621094 C 19.242188 105.792969 18.964844 105.941406 18.675781 106.0625 C 18.386719 106.179688 18.089844 106.269531 17.78125 106.332031 C 17.476562 106.394531 17.164062 106.425781 16.851562 106.425781 L 4.792969 106.425781 C 4.480469 106.425781 4.171875 106.394531 3.863281 106.332031 C 3.554688 106.269531 3.257812 106.179688 2.96875 106.0625 C 2.679688 105.941406 2.402344 105.792969 2.144531 105.621094 C 1.882812 105.445312 1.640625 105.246094 1.421875 105.027344 C 1.199219 104.804688 1 104.5625 0.828125 104.304688 C 0.652344 104.042969 0.507812 103.765625 0.386719 103.476562 C 0.265625 103.1875 0.175781 102.890625 0.113281 102.582031 C 0.0546875 102.273438 0.0234375 101.964844 0.0234375 101.652344 L 0.0234375 89.589844 C 0.0234375 89.277344 0.0546875 88.96875 0.113281 88.660156 C 0.175781 88.351562 0.265625 88.054688 0.386719 87.765625 C 0.507812 87.476562 0.652344 87.199219 0.828125 86.9375 C 1 86.679688 1.199219 86.4375 1.421875 86.214844 C 1.640625 85.996094 1.882812 85.796875 2.144531 85.621094 C 2.402344 85.449219 2.679688 85.300781 2.96875 85.179688 C 3.257812 85.0625 3.554688 84.972656 3.863281 84.910156 C 4.171875 84.847656 4.480469 84.816406 4.792969 84.816406 Z M 4.792969 84.816406 " fill-opacity="1" fill-rule="evenodd"/><path fill="#e3104e" d="M 38.699219 13.460938 L 48.089844 13.460938 C 48.585938 13.460938 49.058594 13.554688 49.515625 13.742188 C 49.96875 13.929688 50.371094 14.199219 50.722656 14.546875 C 51.070312 14.898438 51.339844 15.300781 51.527344 15.753906 C 51.714844 16.210938 51.808594 16.683594 51.808594 17.179688 L 51.808594 26.574219 C 51.808594 27.066406 51.714844 27.539062 51.527344 27.996094 C 51.339844 28.453125 51.070312 28.855469 50.722656 29.203125 C 50.371094 29.550781 49.96875 29.820312 49.515625 30.007812 C 49.058594 30.199219 48.585938 30.292969 48.089844 30.292969 L 38.699219 30.292969 C 38.207031 30.292969 37.734375 30.199219 37.277344 30.007812 C 36.820312 29.820312 36.421875 29.550781 36.070312 29.203125 C 35.722656 28.855469 35.453125 28.453125 35.265625 27.996094 C 35.078125 27.539062 34.980469 27.066406 34.980469 26.574219 L 34.980469 17.179688 C 34.980469 16.683594 35.078125 16.210938 35.265625 15.753906 C 35.453125 15.300781 35.722656 14.898438 36.070312 14.546875 C 36.421875 14.199219 36.820312 13.929688 37.277344 13.742188 C 37.734375 13.554688 38.207031 13.460938 38.699219 13.460938 Z M 38.699219 13.460938 " fill-opacity="1" fill-rule="evenodd"/><g clip-path="url(#bcf1ed101b)"><g clip-path="url(#14607d43e8)"><path stroke-linecap="butt" transform="matrix(0.748758, 0, 0, 0.748758, 191.682111, 0.192143)" fill="none" stroke-linejoin="miter" d="M 34.997423 -0.000984597 L 110.580903 -0.000984597 C 129.909781 -0.000984597 145.576346 15.670797 145.576346 34.999676 L 145.576346 108.997196 C 145.576346 128.326074 129.909781 143.997856 110.580903 143.997856 L 34.997423 143.997856 C 15.668545 143.997856 0.00197999 128.326074 0.00197999 108.997196 L 0.00197999 34.999676 C 0.00197999 15.670797 15.668545 -0.000984597 34.997423 -0.000984597 Z M 34.997423 -0.000984597 " stroke="#aa32a5" stroke-width="26" stroke-opacity="1" stroke-miterlimit="4"/></g></g></svg>
